<svg width="44" height="44" viewBox="0 0 44 44" fill="none" xmlns="http://www.w3.org/2000/svg">
<g filter="url(#filter0_d_6108_20765)">
<rect x="2" y="1" width="40" height="40" rx="8" fill="#F2F2F3"/>
<path d="M21 24H27V26H21V24ZM19 16H17V18H19V16ZM21 22H27V20H21V22ZM21 18H27V16H21V18ZM19 20H17V22H19V20ZM31 14V28C31 29.1 30.1 30 29 30H15C13.9 30 13 29.1 13 28V14C13 12.9 13.9 12 15 12H29C30.1 12 31 12.9 31 14ZM29 14H15V28H29V14ZM19 24H17V26H19V24Z" fill="#131314"/>
</g>
<defs>
<filter id="filter0_d_6108_20765" x="0" y="0" width="44" height="44" filterUnits="userSpaceOnUse" color-interpolation-filters="sRGB">
<feFlood flood-opacity="0" result="BackgroundImageFix"/>
<feColorMatrix in="SourceAlpha" type="matrix" values="0 0 0 0 0 0 0 0 0 0 0 0 0 0 0 0 0 0 127 0" result="hardAlpha"/>
<feOffset dy="1"/>
<feGaussianBlur stdDeviation="1"/>
<feColorMatrix type="matrix" values="0 0 0 0 0.0627451 0 0 0 0 0.0941176 0 0 0 0 0.156863 0 0 0 0.05 0"/>
<feBlend mode="normal" in2="BackgroundImageFix" result="effect1_dropShadow_6108_20765"/>
<feBlend mode="normal" in="SourceGraphic" in2="effect1_dropShadow_6108_20765" result="shape"/>
</filter>
</defs>
</svg>
