<svg width="65" height="64" viewBox="0 0 65 64" fill="none" xmlns="http://www.w3.org/2000/svg">
<circle cx="32.5" cy="32" r="32" fill="#E5E5E6"/>
<path d="M34.1663 47L37.4997 45.3333L40.833 47V35.3333H34.1663M40.833 27V23.6667L37.4997 25.3333L34.1663 23.6667V27L30.833 28.6667L34.1663 30.3333V33.6667L37.4997 32L40.833 33.6667V30.3333L44.1663 28.6667M45.833 17H19.1663C18.2823 17 17.4344 17.3512 16.8093 17.9763C16.1842 18.6014 15.833 19.4493 15.833 20.3333V37C15.833 37.8841 16.1842 38.7319 16.8093 39.357C17.4344 39.9821 18.2823 40.3333 19.1663 40.3333H30.833V37H19.1663V20.3333H45.833V37H44.1663V40.3333H45.833C46.7171 40.3333 47.5649 39.9821 48.19 39.357C48.8152 38.7319 49.1663 37.8841 49.1663 37V20.3333C49.1663 19.4493 48.8152 18.6014 48.19 17.9763C47.5649 17.3512 46.7171 17 45.833 17ZM30.833 25.3333H20.833V22H30.833M27.4997 30.3333H20.833V27H27.4997M30.833 35.3333H20.833V32H30.833V35.3333Z" fill="#131314"/>
</svg>
