<svg width="65" height="64" viewBox="0 0 65 64" fill="none" xmlns="http://www.w3.org/2000/svg">
<circle cx="32.5" cy="32" r="32" fill="#FFE299"/>
<path d="M42.4997 15.3335C40.9997 15.3335 39.1663 17.0002 39.1663 18.6668H25.833C25.833 17.0002 23.9997 15.3335 22.4997 15.3335H15.833V30.3335C15.833 32.0002 17.4997 33.6668 19.1663 33.6668H22.833C23.4997 37.0002 25.6663 39.8335 30.833 40.3335V43.8002C25.833 44.5668 25.833 48.6668 25.833 48.6668H39.1663C39.1663 48.6668 39.1663 44.5668 34.1663 43.8002V40.3335C39.333 39.8335 41.4997 37.0002 42.1663 33.6668H45.833C47.4997 33.6668 49.1663 32.0002 49.1663 30.3335V15.3335H42.4997ZM22.4997 30.3335H19.1663V18.6668H22.4997V30.3335ZM39.1663 31.1668C39.1663 34.3835 38.1997 37.0002 32.4997 37.0002C26.8163 37.0002 25.833 34.3835 25.833 31.1668V22.0002H39.1663V31.1668ZM45.833 30.3335H42.4997V18.6668H45.833V30.3335Z" fill="#FFB700"/>
</svg>
