<svg width="65" height="64" viewBox="0 0 65 64" fill="none" xmlns="http://www.w3.org/2000/svg">
<circle cx="32.5" cy="32" r="32" fill="#F7CCFF"/>
<path d="M22.6663 28.6665L19.1663 41.9998V25.3332H47.4997C47.4997 24.4491 47.1485 23.6013 46.5234 22.9761C45.8982 22.351 45.0504 21.9998 44.1663 21.9998H32.4997L29.1663 18.6665H19.1663C18.2823 18.6665 17.4344 19.0177 16.8093 19.6428C16.1842 20.2679 15.833 21.1158 15.833 21.9998V41.9998C15.833 42.8839 16.1842 43.7317 16.8093 44.3569C17.4344 44.982 18.2823 45.3332 19.1663 45.3332H44.1663C45.6663 45.3332 46.9997 44.3332 47.333 42.8332L51.1663 28.6665H22.6663ZM44.1663 41.9998H22.4997L25.1663 31.9998H46.833L44.1663 41.9998Z" fill="#BC00DD"/>
</svg>
