<svg width="44" height="44" viewBox="0 0 44 44" fill="none" xmlns="http://www.w3.org/2000/svg">
<circle cx="22" cy="22" r="22" fill="#F2F2F3"/>
<path d="M15.2399 19.7084L12.8337 28.875V17.4167H32.3128C32.3128 16.8089 32.0714 16.226 31.6416 15.7963C31.2118 15.3665 30.6289 15.125 30.0212 15.125H22.0003L19.7087 12.8334H12.8337C12.2259 12.8334 11.643 13.0748 11.2132 13.5046C10.7834 13.9344 10.542 14.5173 10.542 15.125V28.875C10.542 29.4828 10.7834 30.0657 11.2132 30.4955C11.643 30.9253 12.2259 31.1667 12.8337 31.1667H30.0212C31.0524 31.1667 31.9691 30.4792 32.1982 29.448L34.8337 19.7084H15.2399ZM30.0212 28.875H15.1253L16.9587 22H31.8545L30.0212 28.875Z" fill="#131314"/>
</svg>
