<svg width="44" height="44" viewBox="0 0 44 44" fill="none" xmlns="http://www.w3.org/2000/svg">
<circle cx="22" cy="22" r="22" fill="#F2F2F3"/>
<path d="M20.8545 18.5625H23.1462V16.2708H20.8545M22.0003 31.1666C16.9472 31.1666 12.8337 27.0531 12.8337 22C12.8337 16.9468 16.9472 12.8333 22.0003 12.8333C27.0535 12.8333 31.167 16.9468 31.167 22C31.167 27.0531 27.0535 31.1666 22.0003 31.1666ZM22.0003 10.5416C20.4956 10.5416 19.0056 10.838 17.6154 11.4138C16.2252 11.9897 14.9621 12.8337 13.8981 13.8977C11.7492 16.0465 10.542 18.961 10.542 22C10.542 25.0389 11.7492 27.9534 13.8981 30.1022C14.9621 31.1662 16.2252 32.0102 17.6154 32.5861C19.0056 33.1619 20.4956 33.4583 22.0003 33.4583C25.0393 33.4583 27.9537 32.2511 30.1026 30.1022C32.2514 27.9534 33.4587 25.0389 33.4587 22C33.4587 20.4952 33.1623 19.0052 32.5864 17.615C32.0106 16.2249 31.1666 14.9617 30.1026 13.8977C29.0386 12.8337 27.7754 11.9897 26.3852 11.4138C24.9951 10.838 23.5051 10.5416 22.0003 10.5416ZM20.8545 27.7291H23.1462V20.8541H20.8545V27.7291Z" fill="#131314"/>
</svg>
