<svg width="65" height="64" viewBox="0 0 65 64" fill="none" xmlns="http://www.w3.org/2000/svg">
<circle cx="32.5" cy="32" r="32" fill="#CEEDFD"/>
<path d="M32.5003 47.8333C30.2503 46.4167 26.167 45.3333 23.3337 45.3333C20.5837 45.3333 17.7503 45.8333 15.417 47.0833C15.2503 47.1667 15.167 47.1667 15.0003 47.1667C14.5837 47.1667 14.167 46.75 14.167 46.3333V22C15.167 21.25 16.2503 20.75 17.5003 20.3333C19.3503 19.75 21.3837 19.5 23.3337 19.5C26.5837 19.5 30.0837 20.1667 32.5003 22C34.917 20.1667 38.417 19.5 41.667 19.5C43.617 19.5 45.6503 19.75 47.5003 20.3333C48.7503 20.75 49.8337 21.25 50.8337 22V46.3333C50.8337 46.75 50.417 47.1667 50.0003 47.1667C49.8337 47.1667 49.7503 47.1667 49.5837 47.0833C47.2503 45.8333 44.417 45.3333 41.667 45.3333C38.8337 45.3333 34.7503 46.4167 32.5003 47.8333ZM30.8337 24.5C28.567 23.5 25.567 22.8333 23.3337 22.8333C21.3337 22.8333 19.3337 23.0833 17.5003 23.6667V42.8333C19.3337 42.25 21.3337 42 23.3337 42C25.567 42 28.567 42.6667 30.8337 43.6667V24.5ZM34.167 43.6667C36.4337 42.6667 39.4337 42 41.667 42C43.667 42 45.667 42.25 47.5003 42.8333V23.6667C45.667 23.0833 43.667 22.8333 41.667 22.8333C39.4337 22.8333 36.4337 23.5 34.167 24.5V43.6667Z" fill="#0784C3"/>
</svg>
