<svg width="44" height="44" viewBox="0 0 44 44" fill="none" xmlns="http://www.w3.org/2000/svg">
<circle cx="22" cy="22" r="22" fill="#F2F2F3"/>
<g clip-path="url(#clip0_6105_18714)">
<path d="M22 13.9785C20.9364 13.9785 19.9163 14.401 19.1642 15.1531C18.4121 15.9052 17.9896 16.9253 17.9896 17.9889C17.9896 19.0526 18.4121 20.0726 19.1642 20.8247C19.9163 21.5768 20.9364 21.9993 22 21.9993C23.0636 21.9993 24.0837 21.5768 24.8358 20.8247C25.5879 20.0726 26.0104 19.0526 26.0104 17.9889C26.0104 16.9253 25.5879 15.9052 24.8358 15.1531C24.0837 14.401 23.0636 13.9785 22 13.9785ZM22 16.2702C22.4558 16.2702 22.893 16.4513 23.2153 16.7736C23.5377 17.0959 23.7188 17.5331 23.7188 17.9889C23.7188 18.4448 23.5377 18.8819 23.2153 19.2043C22.893 19.5266 22.4558 19.7077 22 19.7077C21.5442 19.7077 21.107 19.5266 20.7847 19.2043C20.4623 18.8819 20.2812 18.4448 20.2812 17.9889C20.2812 17.5331 20.4623 17.0959 20.7847 16.7736C21.107 16.4513 21.5442 16.2702 22 16.2702ZM14.5521 17.416C13.7923 17.416 13.0637 17.7178 12.5265 18.255C11.9893 18.7922 11.6875 19.5209 11.6875 20.2806C11.6875 21.3577 12.2948 22.2858 13.1656 22.7785C13.5781 23.0077 14.0479 23.1452 14.5521 23.1452C15.0563 23.1452 15.526 23.0077 15.9385 22.7785C16.3625 22.5379 16.7177 22.1941 16.9812 21.7816C16.1465 20.6938 15.6953 19.3602 15.6979 17.9889V17.6681C15.3542 17.5077 14.9646 17.416 14.5521 17.416ZM29.4479 17.416C29.0354 17.416 28.6458 17.5077 28.3021 17.6681V17.9889C28.3021 19.3639 27.8552 20.6931 27.0187 21.7816C27.1562 21.9993 27.3052 22.1712 27.4771 22.3431C28.0054 22.8556 28.7119 23.1431 29.4479 23.1452C29.9521 23.1452 30.4219 23.0077 30.8344 22.7785C31.7052 22.2858 32.3125 21.3577 32.3125 20.2806C32.3125 19.5209 32.0107 18.7922 31.4735 18.255C30.9363 17.7178 30.2077 17.416 29.4479 17.416ZM22 24.291C19.3188 24.291 13.9792 25.6316 13.9792 28.3014V30.0202H30.0208V28.3014C30.0208 25.6316 24.6812 24.291 22 24.291ZM13.6469 24.9212C11.4354 25.1848 8.25 26.3077 8.25 28.3014V30.0202H11.6875V27.8087C11.6875 26.6514 12.4781 25.6889 13.6469 24.9212ZM30.3531 24.9212C31.5219 25.6889 32.3125 26.6514 32.3125 27.8087V30.0202H35.75V28.3014C35.75 26.3077 32.5646 25.1848 30.3531 24.9212ZM22 26.5827C23.7531 26.5827 25.7125 27.1556 26.8469 27.7285H17.1531C18.2875 27.1556 20.2469 26.5827 22 26.5827Z" fill="#131314"/>
</g>
<defs>
<clipPath id="clip0_6105_18714">
<rect width="27.5" height="27.5" fill="white" transform="translate(8.25 8.25)"/>
</clipPath>
</defs>
</svg>
