<svg width="44" height="44" viewBox="0 0 44 44" fill="none" xmlns="http://www.w3.org/2000/svg">
<circle cx="22" cy="22" r="22" fill="#F2F2F3"/>
<path d="M28.8753 25.4375H26.5837V27.7292H28.8753M28.8753 20.8542H26.5837V23.1458H28.8753M31.167 30.0208H22.0003V27.7292H24.292V25.4375H22.0003V23.1458H24.292V20.8542H22.0003V18.5625H31.167M19.7087 16.2708H17.417V13.9792H19.7087M19.7087 20.8542H17.417V18.5625H19.7087M19.7087 25.4375H17.417V23.1458H19.7087M19.7087 30.0208H17.417V27.7292H19.7087M15.1253 16.2708H12.8337V13.9792H15.1253M15.1253 20.8542H12.8337V18.5625H15.1253M15.1253 25.4375H12.8337V23.1458H15.1253M15.1253 30.0208H12.8337V27.7292H15.1253M22.0003 16.2708V11.6875H10.542V32.3125H33.4587V16.2708H22.0003Z" fill="#131314"/>
</svg>
