<svg width="44" height="44" viewBox="0 0 44 44" fill="none" xmlns="http://www.w3.org/2000/svg">
<circle cx="22" cy="22" r="22" fill="#F2F2F3"/>
<path d="M21.9997 32.8854C20.4528 31.9115 17.6455 31.1667 15.6976 31.1667C13.807 31.1667 11.859 31.5104 10.2549 32.3698C10.1403 32.4271 10.083 32.4271 9.96842 32.4271C9.68197 32.4271 9.39551 32.1406 9.39551 31.8542V15.125C10.083 14.6094 10.8278 14.2656 11.6872 13.9792C12.959 13.5781 14.357 13.4062 15.6976 13.4062C17.932 13.4062 20.3382 13.8646 21.9997 15.125C23.6611 13.8646 26.0674 13.4062 28.3018 13.4062C29.6424 13.4062 31.0403 13.5781 32.3122 13.9792C33.1715 14.2656 33.9163 14.6094 34.6038 15.125V31.8542C34.6038 32.1406 34.3174 32.4271 34.0309 32.4271C33.9163 32.4271 33.859 32.4271 33.7445 32.3698C32.1403 31.5104 30.1924 31.1667 28.3018 31.1667C26.3538 31.1667 23.5465 31.9115 21.9997 32.8854ZM20.8538 16.8437C19.2955 16.1562 17.233 15.6979 15.6976 15.6979C14.3226 15.6979 12.9476 15.8698 11.6872 16.2708V29.4479C12.9476 29.0469 14.3226 28.875 15.6976 28.875C17.233 28.875 19.2955 29.3333 20.8538 30.0208V16.8437ZM23.1455 30.0208C24.7038 29.3333 26.7663 28.875 28.3018 28.875C29.6768 28.875 31.0518 29.0469 32.3122 29.4479V16.2708C31.0518 15.8698 29.6768 15.6979 28.3018 15.6979C26.7663 15.6979 24.7038 16.1562 23.1455 16.8437V30.0208Z" fill="#131314"/>
</svg>
