<svg width="44" height="44" viewBox="0 0 44 44" fill="none" xmlns="http://www.w3.org/2000/svg">
<circle cx="22" cy="22" r="22" fill="#F2F2F3"/>
<path d="M23.2264 20.1788C23.9224 19.2063 24.2966 18.0404 24.2966 16.8444C24.2966 15.6485 23.9224 14.4826 23.2264 13.5101C23.8781 13.0661 24.6492 12.8304 25.4378 12.834C26.5015 12.834 27.5215 13.2566 28.2736 14.0087C29.0257 14.7607 29.4482 15.7808 29.4482 16.8444C29.4482 17.9081 29.0257 18.9281 28.2736 19.6802C27.5215 20.4323 26.5015 20.8549 25.4378 20.8549C24.6492 20.8585 23.8781 20.6228 23.2264 20.1788ZM14.5524 16.8444C14.5524 16.0513 14.7876 15.2759 15.2283 14.6164C15.669 13.9569 16.2953 13.4428 17.0281 13.1393C17.7609 12.8358 18.5673 12.7563 19.3452 12.9111C20.1232 13.0658 20.8378 13.4478 21.3986 14.0087C21.9595 14.5695 22.3414 15.2841 22.4962 16.062C22.6509 16.84 22.5715 17.6464 22.268 18.3792C21.9644 19.112 21.4504 19.7383 20.7909 20.179C20.1314 20.6197 19.356 20.8549 18.5628 20.8549C17.4992 20.8549 16.4791 20.4323 15.727 19.6802C14.9749 18.9281 14.5524 17.9081 14.5524 16.8444ZM16.8441 16.8444C16.8441 17.1844 16.9449 17.5167 17.1337 17.7993C17.3226 18.082 17.591 18.3023 17.9051 18.4324C18.2191 18.5624 18.5647 18.5965 18.8981 18.5302C19.2315 18.4638 19.5378 18.3002 19.7782 18.0598C20.0185 17.8194 20.1822 17.5132 20.2486 17.1798C20.3149 16.8463 20.2808 16.5008 20.1507 16.1867C20.0207 15.8726 19.8004 15.6042 19.5177 15.4154C19.2351 15.2265 18.9028 15.1257 18.5628 15.1257C18.107 15.1257 17.6698 15.3068 17.3475 15.6291C17.0252 15.9514 16.8441 16.3886 16.8441 16.8444ZM26.5837 27.7299V30.0215H10.542V27.7299C10.542 27.7299 10.542 23.1465 18.5628 23.1465C26.5837 23.1465 26.5837 27.7299 26.5837 27.7299ZM24.292 27.7299C24.1316 26.8361 22.768 25.4382 18.5628 25.4382C14.3576 25.4382 12.9139 26.9392 12.8337 27.7299M26.5264 23.1465C27.2287 23.6928 27.8029 24.3861 28.2087 25.1779C28.6145 25.9697 28.842 26.8408 28.8753 27.7299V30.0215H33.4587V27.7299C33.4587 27.7299 33.4587 23.5705 26.5149 23.1465H26.5264Z" fill="#131314"/>
</svg>
