<?xml version="1.0" encoding="utf-8"?>
<!-- Generator: Adobe Illustrator 27.5.0, SVG Export Plug-In . SVG Version: 6.00 Build 0)  -->
<svg version="1.1" xmlns="http://www.w3.org/2000/svg" xmlns:xlink="http://www.w3.org/1999/xlink" x="0px" y="0px"
	 viewBox="0 0 3710 3710" style="enable-background:new 0 0 3710 3710;" xml:space="preserve">
<g id="Background">
	<g>
		<g>
			<rect style="fill:#FFFFFF;" width="3710" height="3710"/>
		</g>
	</g>
</g>
<g id="Illustration">
	<g>
		
			<linearGradient id="SVGID_1_" gradientUnits="userSpaceOnUse" x1="3460.2368" y1="3631.9561" x2="1385.1066" y2="1392.1328" gradientTransform="matrix(0.9902 -0.0109 0.0108 0.9798 -30.0584 49.8652)">
			<stop  offset="0" style="stop-color:#DAE3FE"/>
			<stop  offset="1" style="stop-color:#E9EFFD"/>
		</linearGradient>
		<path style="fill:url(#SVGID_1_);" d="M3139.854,2321.565c-276.165,654.114-1021.059,941.996-1607.644,900.801
			c-160.162-11.248-482.41-33.879-736.382-264.758c-487.735-443.387-423.753-1382.169,32.295-1939.497
			c58.73-71.772,465.422-552.785,1107.453-553.505c470.061-0.527,802.841,256.781,843.314,288.847
			c51.129,40.508,163.976,136.865,266.417,290.576C3286.01,1405.195,3312.43,1912.808,3139.854,2321.565z"/>
		<g>
			<g>
				<rect x="2857.316" y="2821.32" style="fill:#91B3FA;" width="34.062" height="368.357"/>
				<path style="fill:#91B3FA;" d="M3023.512,3196.778h-298.331v-27.412c0-4.545,3.685-8.229,8.23-8.229h281.871
					c4.545,0,8.23,3.684,8.23,8.229V3196.778z"/>
				<path style="fill:#91B3FA;" d="M3067.789,2795.065c0,20.146-16.484,36.63-36.631,36.63h-301.834
					c-20.146,0-36.63-16.484-36.63-36.63v-33.121c0-20.146,16.483-36.63,36.63-36.63h301.834c20.147,0,36.631,16.484,36.631,36.63
					V2795.065z"/>
			</g>
			<g>
				
					<linearGradient id="SVGID_00000010304043443134475040000014418355044054191005_" gradientUnits="userSpaceOnUse" x1="2975.1616" y1="3489.3662" x2="2766.3877" y2="3118.9607">
					<stop  offset="0" style="stop-color:#FEBBBA"/>
					<stop  offset="1" style="stop-color:#FF928E"/>
				</linearGradient>
				<path style="fill:url(#SVGID_00000010304043443134475040000014418355044054191005_);" d="M2622.887,2562.24
					c0,0-50.614,7.846-107.521,45.888c-8.956,5.987-13.868,16.424-12.519,27.112c6.814,53.975,34.831,228.677,127.218,399.309
					c4.871,8.997,6.271,19.471,4.122,29.474l-16.051,74.696l-29.765,27.91h76.67l51.048-138.146l-21.828-6.903
					c-16.925-5.352-28.537-20.919-28.844-38.667l-2.562-148.193c2.185-66.023-40.483-111.577-40.483-111.577l122.445-5.957
					L2622.887,2562.24z"/>
				
					<linearGradient id="SVGID_00000026148875456442953970000015209304784097042604_" gradientUnits="userSpaceOnUse" x1="2650.8132" y1="3022.2463" x2="2615.1907" y2="3568.457">
					<stop  offset="0" style="stop-color:#4F52FF"/>
					<stop  offset="1" style="stop-color:#4042E2"/>
				</linearGradient>
				<path style="fill:url(#SVGID_00000026148875456442953970000015209304784097042604_);" d="M2558.433,3180.105
					c-6.982,9.138,75.15,21.197,116.647,1.209c0,0,57.522-100.081,57.522-151.61c0,0-4.565-10.506-38.341-8.125
					c0,0-19.314,118.501-39.708,131.775c-20.394,13.274-57.058,1.343-57.058,1.343S2568.735,3166.622,2558.433,3180.105z"/>
				
					<linearGradient id="SVGID_00000106863003098458926120000011600405484129916851_" gradientUnits="userSpaceOnUse" x1="2608.0793" y1="2688.6692" x2="2288.1836" y2="3308.2566">
					<stop  offset="0" style="stop-color:#FEBBBA"/>
					<stop  offset="1" style="stop-color:#FF928E"/>
				</linearGradient>
				<path style="fill:url(#SVGID_00000106863003098458926120000011600405484129916851_);" d="M2729.324,2725.314
					c-0.651-1.127-131.83-15.773-131.83-15.773s4.293,39.885-9.124,94.791c-13.417,54.906-206.016,292.786-206.016,292.786
					l20.194,64.018c-62.439,21.75-123.859,25.228-184.296,11.086l125.154-75.104c0,0,117.129-399.154,188.875-470.363
					l131.491-45.492L2729.324,2725.314z"/>
				
					<linearGradient id="SVGID_00000021819055470550218230000016359022714649285278_" gradientUnits="userSpaceOnUse" x1="2711.5657" y1="3029.9485" x2="2803.3796" y2="2691.384">
					<stop  offset="0" style="stop-color:#09005D"/>
					<stop  offset="1" style="stop-color:#1A0F91"/>
				</linearGradient>
				<path style="fill:url(#SVGID_00000021819055470550218230000016359022714649285278_);" d="M3023.512,2493.06
					c0,0,75.578,112.414,81.78,163.691c6.202,51.278-20.703,72.114-100.003,75.549c-79.301,3.436-291.002,3.381-291.002,3.381
					l-180.684-154.418c0,0,131.675-46.985,165.91-60.271C2733.746,2507.708,3023.512,2493.06,3023.512,2493.06z"/>
				
					<linearGradient id="SVGID_00000136407922439583385140000006791730787297396108_" gradientUnits="userSpaceOnUse" x1="2307.061" y1="2999.8276" x2="2271.4387" y2="3546.0388">
					<stop  offset="0" style="stop-color:#4F52FF"/>
					<stop  offset="1" style="stop-color:#4042E2"/>
				</linearGradient>
				<path style="fill:url(#SVGID_00000136407922439583385140000006791730787297396108_);" d="M2394.918,3139.577
					c0,0,21.741,21.058,7.055,44.488c0,0-172.231,30.528-218.993,16.677c0,0,9.709-22.162,62.365-47.387l-3.885,2.982
					c-4.917,3.775-2.033,11.637,4.155,11.284C2280.313,3165.643,2352.12,3159.286,2394.918,3139.577z"/>
			</g>
			<g>
				
					<linearGradient id="SVGID_00000042703582747012929200000006340758413676859805_" gradientUnits="userSpaceOnUse" x1="2828.5161" y1="2365.8862" x2="3431.2676" y2="1641.9099">
					<stop  offset="0" style="stop-color:#FE7062"/>
					<stop  offset="1" style="stop-color:#FF928E"/>
				</linearGradient>
				<path style="fill:url(#SVGID_00000042703582747012929200000006340758413676859805_);" d="M2828.97,2478.69
					c0,0-84.991-80.929-126.827-134.531c-22.615-28.975-29.716-67.119-19.258-102.355c19.101-64.35,53.045-130.999,56.14-141.372
					c4.745-15.9,100.042-15.238,100.042-15.238s187.525,121.706,261.204,327.866l-82.746,25.761c0,0-48.963-82.144-97.341-134.37
					c0,0,83.712,110.586,86.66,155.857L2828.97,2478.69z"/>
				
					<linearGradient id="SVGID_00000127002029571857609290000012294319040779593356_" gradientUnits="userSpaceOnUse" x1="2805.3137" y1="2242.5054" x2="2766.595" y2="1994.0618">
					<stop  offset="0" style="stop-color:#FEBBBA"/>
					<stop  offset="1" style="stop-color:#FF928E"/>
				</linearGradient>
				<path style="fill:url(#SVGID_00000127002029571857609290000012294319040779593356_);" d="M2714.777,2005.466
					c0.995,3.305,38.591,91.867,40.537,93.578c1.946,1.711,54.548,4.541,79.308-12.381l-53.059-143.492L2714.777,2005.466z"/>
				
					<linearGradient id="SVGID_00000156549668544753360430000000843052839123839410_" gradientUnits="userSpaceOnUse" x1="2305.3247" y1="1628.4117" x2="2362.5691" y2="1484.4592" gradientTransform="matrix(0.9563 0.2924 -0.2924 0.9563 896.4253 -188.9757)">
					<stop  offset="0" style="stop-color:#FEBBBA"/>
					<stop  offset="1" style="stop-color:#FF928E"/>
				</linearGradient>
				<path style="fill:url(#SVGID_00000156549668544753360430000000843052839123839410_);" d="M2713.356,1840.5
					c0,0-48.923,13.943-89.21,78.011c-40.287,64.068-20.791,98.55,8.224,106.672c29.015,8.122,73.321,13.153,125.757-24.837
					C2810.563,1962.356,2776.661,1824.656,2713.356,1840.5z"/>
				
					<linearGradient id="SVGID_00000083780711784942318930000015073728538347818133_" gradientUnits="userSpaceOnUse" x1="2922.197" y1="1450.1025" x2="2585.5535" y2="1800.3477" gradientTransform="matrix(0.9958 0.0919 -0.0919 0.9958 251.1226 -48.7112)">
					<stop  offset="0" style="stop-color:#09005D"/>
					<stop  offset="1" style="stop-color:#1A0F91"/>
				</linearGradient>
				<path style="fill:url(#SVGID_00000083780711784942318930000015073728538347818133_);" d="M2727.276,1956.91
					c0,0,42.456-91.417-41.25-100.267l-20.623,12.642c0,0-10.14-58.966,42.64-79.328c52.78-20.362,140.815,36.653,156.019,106.632
					c15.205,69.979-63.038,125.09-76.857,115.582c-5.42-3.729-24.21-41.736-24.21-41.736s2.197,5.725-4.223-11.286
					c-6.419-17.01-26.503,0.951-26.503,0.951L2727.276,1956.91z"/>
				
					<linearGradient id="SVGID_00000013915547843945402790000016757127891376912512_" gradientUnits="userSpaceOnUse" x1="2326.6628" y1="1675.0621" x2="2413.3713" y2="1496.5942" gradientTransform="matrix(0.9563 0.2924 -0.2924 0.9563 896.4253 -188.9757)">
					<stop  offset="0" style="stop-color:#FEBBBA"/>
					<stop  offset="1" style="stop-color:#FF928E"/>
				</linearGradient>
				<path style="fill:url(#SVGID_00000013915547843945402790000016757127891376912512_);" d="M2731.025,1964.629
					c0,0,24.119-47.739,45.15-24.786c21.031,22.952-25.118,43.732-42.955,50.091L2731.025,1964.629z"/>
				
					<linearGradient id="SVGID_00000142159228806210376110000007283615654910246820_" gradientUnits="userSpaceOnUse" x1="2944.7837" y1="2464.574" x2="3408.3979" y2="2464.574">
					<stop  offset="0" style="stop-color:#FEBBBA"/>
					<stop  offset="1" style="stop-color:#FF928E"/>
				</linearGradient>
				<path style="fill:url(#SVGID_00000142159228806210376110000007283615654910246820_);" d="M2655.823,2484.699l62.444-60.188
					l86.383,36.493c0,0,85.985,13.322,135.198,0c49.212-13.322,49.212-13.322,49.212-13.322l111.21-34.622l17.466,49.362
					c4.435,12.532-0.022,26.446-10.858,34.146c-9.621,6.837-20.899,14.351-28.087,17.495c-14.646,6.407-361.024-4.432-361.024-4.432
					L2655.823,2484.699z"/>
				
					<linearGradient id="SVGID_00000182528120179130521640000004627829981860092340_" gradientUnits="userSpaceOnUse" x1="3201.1563" y1="1888.0695" x2="2835.4285" y2="2268.5737" gradientTransform="matrix(1 -0.0015 0.0015 1 3.8977 -11.4223)">
					<stop  offset="0" style="stop-color:#09005D"/>
					<stop  offset="1" style="stop-color:#1A0F91"/>
				</linearGradient>
				<path style="fill:url(#SVGID_00000182528120179130521640000004627829981860092340_);" d="M2859.703,1966.958
					c-10.839-11.039-3.835-29.724,11.447-32.131c49.329-7.771,124.568-0.034,156.328,105.539
					c35.775,118.923,59.035,178.372,82.83,188.776c15.626,6.832,16.662,28.506,1.115,35.516c-11.496,5.183-27.96,7.04-51.538,1.89
					C2878.004,2226.825,2923.276,2031.705,2859.703,1966.958z"/>
			</g>
			<g>
				
					<linearGradient id="SVGID_00000047767758199625260460000000343716781421575309_" gradientUnits="userSpaceOnUse" x1="2869.2336" y1="2616.7432" x2="2577.3848" y2="2696.7312" gradientTransform="matrix(0.9988 -0.0494 0.0494 0.9988 -41.469 -55.0328)">
					<stop  offset="0" style="stop-color:#09005D"/>
					<stop  offset="1" style="stop-color:#1A0F91"/>
				</linearGradient>
				<path style="fill:url(#SVGID_00000047767758199625260460000000343716781421575309_);" d="M2892.133,2513.073
					c-0.277,0.014-0.554,0.021-0.833,0.019l-362.228-0.395c-8.955-0.007-16.205-7.274-16.196-16.229
					c0.009-8.958,7.302-16.357,16.232-16.196l362.228,0.395c8.955,0.007,16.205,7.274,16.196,16.229
					C2907.522,2505.571,2900.699,2512.65,2892.133,2513.073z"/>
				
					<linearGradient id="SVGID_00000121961410753329772150000012160024858021250239_" gradientUnits="userSpaceOnUse" x1="2296.1248" y1="2569.6919" x2="2437.5525" y2="2357.5508">
					<stop  offset="0" style="stop-color:#09005D"/>
					<stop  offset="1" style="stop-color:#1A0F91"/>
				</linearGradient>
				<path style="fill:url(#SVGID_00000121961410753329772150000012160024858021250239_);" d="M2203.445,2184.192h301.666
					c22.254,0,42.509,12.843,52.002,32.971l139.46,295.717h-374.891c-14.341,0-27.226-8.763-32.497-22.099l-108.145-273.642
					C2174.792,2201.327,2186.444,2184.192,2203.445,2184.192z"/>
				<path style="fill:#7D97F4;" d="M2415.971,2335.816c6.538,20.31,1.708,40.034-10.787,44.056
					c-12.494,4.022-27.922-9.183-34.46-29.492c-6.537-20.31-1.708-40.035,10.787-44.056
					C2394.006,2302.301,2409.434,2315.506,2415.971,2335.816z"/>
			</g>
			<g>
				<path style="fill:#7D97F4;" d="M3252.582,2526.149c0.867-4.068-0.313-8.276-3.219-11.471c-2.906-3.196-7.234-5.047-11.8-5.047
					H1690.73c-6.005,0-11.596,2.777-14.831,7.368c-3.235,4.591-3.669,10.361-1.151,15.308l16.763,32.92
					c3.838,7.539,12.155,12.366,21.307,12.366h1514.131c8.513,0,15.831-5.478,17.448-13.063L3252.582,2526.149z"/>
				<g>
					<path style="fill:#7D97F4;" d="M1777.428,3219.984c-1.79,0-3.608-0.354-5.358-1.098c-6.886-2.934-10.068-10.843-7.105-17.663
						l284.693-655.487c2.961-6.818,10.941-9.967,17.834-7.037c6.886,2.935,10.068,10.843,7.105,17.663l-284.693,655.488
						C1787.695,3216.936,1782.689,3219.984,1777.428,3219.984z"/>
					<path style="fill:#7D97F4;" d="M2098.147,3219.984c-5.26,0-10.267-3.046-12.476-8.135l-284.693-655.488
						c-2.963-6.82,0.219-14.728,7.105-17.663c6.882-2.934,14.869,0.215,17.834,7.037l284.693,655.487
						c2.963,6.821-0.219,14.729-7.105,17.663C2101.757,3219.63,2099.937,3219.984,2098.147,3219.984z"/>
					<path style="fill:#7D97F4;" d="M2844.672,3219.984c-1.79,0-3.608-0.354-5.358-1.098c-6.886-2.934-10.068-10.843-7.105-17.663
						l284.693-655.487c2.963-6.818,10.939-9.967,17.834-7.037c6.886,2.935,10.068,10.843,7.105,17.663l-284.693,655.488
						C2854.939,3216.936,2849.932,3219.984,2844.672,3219.984z"/>
					<path style="fill:#7D97F4;" d="M3165.389,3219.984c-5.261,0-10.267-3.046-12.477-8.135l-284.693-655.488
						c-2.963-6.82,0.219-14.728,7.105-17.663c6.883-2.934,14.869,0.215,17.834,7.037l284.693,655.487
						c2.963,6.821-0.219,14.729-7.105,17.663C3168.999,3219.63,3167.178,3219.984,3165.389,3219.984z"/>
				</g>
			</g>
		</g>
		<g>
			
				<linearGradient id="SVGID_00000080180963886833807670000010692129332713325734_" gradientUnits="userSpaceOnUse" x1="1133.1144" y1="-207.5136" x2="992.2879" y2="140.151">
				<stop  offset="0" style="stop-color:#E1473D"/>
				<stop  offset="1" style="stop-color:#E9605A"/>
			</linearGradient>
			<path style="fill:url(#SVGID_00000080180963886833807670000010692129332713325734_);" d="M680.784,477.01
				C563.781,519.9,450.281,627.269,466.083,764.338c13.438,116.558,144.113,150.967,223.385,163.25
				c22.11,3.426,42.201,15.026,56.548,32.582c34.333,42.013,107.883,112.035,188.598,65.425c5.878-3.395,3.25-12.638-3.495-12.364
				c-21.457,0.871-51.909-2.289-72.635-22.927c-28.229-28.11-18.008-76.878,18.473-92.069
				c69.039-28.747,199.312-107.018,182.444-284.395C1036.588,373.953,680.784,477.01,680.784,477.01z"/>
			<path style="opacity:0.7;fill:#FFFFFF;" d="M510.89,665.147c-0.978,0-1.973-0.197-2.931-0.613
				c-3.815-1.66-5.592-6.17-3.972-10.075c43.466-104.703,147.388-151.297,226.914-171.949c4.022-1.054,8.1,1.444,9.119,5.557
				c1.02,4.111-1.411,8.291-5.429,9.334c-76.234,19.798-175.729,64.158-216.79,163.067
				C516.587,663.391,513.811,665.147,510.89,665.147z"/>
			<path style="opacity:0.7;fill:#FFFFFF;" d="M493.726,772.021c-3.666,0-6.874-2.753-7.417-6.577
				c-0.09-0.627-2.158-15.607-0.097-38.762c0.378-4.225,4.018-7.353,8.155-6.952c4.128,0.384,7.168,4.122,6.792,8.347
				c-1.902,21.364-0.017,35.018,0.002,35.153c0.597,4.199-2.243,8.096-6.345,8.707C494.45,771.993,494.085,772.021,493.726,772.021z
				"/>
			<g>
				<path style="fill:#FFFFFF;" d="M794.566,767.284l-26.75,0.406c-7.456,0.113-13.87-6.247-14.557-14.008l-17.232-194.893
					c-0.356-4.017,0.913-7.391,3.473-10.22c2.556-2.827,6.213-3.85,10.076-3.726l46.151,1.485c3.782,0.122,7.432,1.275,10.137,4.23
					c2.702,2.95,4.194,6.559,4.149,10.501l-2.206,192.107C807.719,760.848,801.914,767.172,794.566,767.284z"/>
				<path style="fill:#FFFFFF;" d="M755.144,816.634c6.421-6.876,15.688-10.45,27.768-10.732
					c12.453-0.291,22.016,2.735,28.726,9.064c6.693,6.311,10.272,15.78,10.754,28.422c0.465,12.189-2.46,21.752-8.79,28.702
					c-6.347,6.971-15.582,10.704-27.739,11.19c-11.927,0.477-21.411-2.616-28.422-9.297c-7.029-6.699-10.783-16.098-11.244-28.181
					C745.719,833.257,748.706,823.529,755.144,816.634z"/>
			</g>
		</g>
		<g>
			<path style="fill:#FFFFFF;" d="M1389.241,812.777l141.952-90.547c6.265-3.996,14.547-2.532,19.063,3.37v0
				c5.491,7.177,3.038,17.585-5.081,21.554l-151.267,73.943c-1.78,0.87-3.913,0.551-5.361-0.803l0,0
				C1386.268,818.164,1386.61,814.455,1389.241,812.777z"/>
			<path style="fill:#FFFFFF;" d="M1392.276,935.561l161.772,46.679c7.14,2.06,14.669-1.687,17.33-8.626l0,0
				c3.236-8.438-2.062-17.726-10.972-19.235l-166.007-28.119c-1.954-0.331-3.909,0.579-4.915,2.286v0
				C1387.901,931.236,1389.278,934.696,1392.276,935.561z"/>
			<path style="fill:#FFFFFF;" d="M1417.039,871.447l183.979-43.168c8.12-1.905,15.95,3.018,18.022,11.331v0
				c2.52,10.11-4.466,20.609-14.468,21.744l-186.346,21.134c-2.193,0.249-4.234-0.955-5.13-3.026l0,0
				C1411.684,876.2,1413.629,872.247,1417.039,871.447z"/>
		</g>
		<g>
			
				<linearGradient id="SVGID_00000124138895856898235070000004314872227585740685_" gradientUnits="userSpaceOnUse" x1="1874.1362" y1="2604.7424" x2="1877.5035" y2="2712.4966">
				<stop  offset="0" style="stop-color:#4F52FF"/>
				<stop  offset="1" style="stop-color:#4042E2"/>
			</linearGradient>
			<path style="fill:url(#SVGID_00000124138895856898235070000004314872227585740685_);" d="M1590.599,2990.118l6.274,195.139
				c1.094,34.027,29.019,61.105,63.222,61.307l467.294,2.754c22.86,0.135,42.335-16.476,45.673-38.985
				c7.307-49.279,16.617-137.454,6.133-220.215H1590.599z"/>
			<path style="fill:#FFFFFF;" d="M2117.719,3238.155c-0.746,0-1.365-0.591-1.392-1.343c-0.029-0.768,0.571-1.416,1.341-1.446
				c2.703-0.101,5.401-0.46,8.017-1.07c0.745-0.174,1.5,0.294,1.674,1.043c0.176,0.749-0.292,1.501-1.042,1.675
				c-2.789,0.648-5.664,1.032-8.545,1.141H2117.719z M2098.199,3238.082h-0.008l-8.367-0.049c-0.771-0.006-1.39-0.632-1.386-1.403
				c0.004-0.768,0.628-1.386,1.395-1.386h0.008l8.367,0.049c0.771,0.005,1.39,0.632,1.386,1.402
				C2099.59,3237.463,2098.966,3238.082,2098.199,3238.082z M2070.311,3237.918h-0.008l-8.365-0.049
				c-0.771-0.006-1.39-0.632-1.386-1.403c0.004-0.768,0.628-1.386,1.394-1.386h0.009l8.365,0.049
				c0.771,0.005,1.39,0.632,1.386,1.403C2071.701,3237.3,2071.077,3237.918,2070.311,3237.918z M2042.423,3237.752h-0.008
				l-8.367-0.049c-0.771-0.005-1.39-0.632-1.386-1.403c0.004-0.768,0.628-1.386,1.394-1.386h0.008l8.367,0.049
				c0.771,0.005,1.39,0.632,1.386,1.402C2043.814,3237.134,2043.19,3237.752,2042.423,3237.752z M2014.534,3237.589h-0.008
				l-8.367-0.049c-0.771-0.005-1.39-0.632-1.386-1.402c0.004-0.771,0.748-1.395,1.403-1.386l8.367,0.049
				c0.771,0.006,1.39,0.632,1.386,1.403C2015.925,3236.97,2015.301,3237.589,2014.534,3237.589z M1986.646,3237.425h-0.008
				l-8.365-0.049c-0.771-0.005-1.39-0.632-1.386-1.403c0.004-0.768,0.628-1.386,1.394-1.386h0.006l8.368,0.049
				c0.771,0.006,1.39,0.632,1.386,1.402C1988.036,3236.807,1987.412,3237.425,1986.646,3237.425z M1958.758,3237.259h-0.008
				l-8.367-0.049c-0.771-0.006-1.39-0.632-1.386-1.403c0.004-0.768,0.628-1.386,1.394-1.386h0.008l8.367,0.049
				c0.771,0.006,1.391,0.632,1.386,1.403C1960.149,3236.641,1959.525,3237.259,1958.758,3237.259z M1930.869,3237.096h-0.008
				l-8.367-0.049c-0.771-0.006-1.39-0.632-1.386-1.403c0.004-0.768,0.628-1.386,1.395-1.386h0.008l8.367,0.049
				c0.771,0.005,1.391,0.632,1.386,1.403C1932.26,3236.478,1931.636,3237.096,1930.869,3237.096z M1902.982,3236.933h-0.008
				l-8.367-0.049c-0.771-0.006-1.391-0.632-1.386-1.403c0.004-0.768,0.628-1.386,1.394-1.386h0.008l8.367,0.049
				c0.771,0.005,1.391,0.632,1.386,1.403C1904.372,3236.314,1903.749,3236.933,1902.982,3236.933z M1875.093,3236.766h-0.008
				l-8.367-0.049c-0.771-0.005-1.391-0.632-1.386-1.403c0.004-0.768,0.628-1.386,1.394-1.386h0.008l8.367,0.049
				c0.771,0.005,1.391,0.632,1.386,1.403C1876.483,3236.148,1875.86,3236.766,1875.093,3236.766z M1847.204,3236.603h-0.005
				l-8.369-0.049c-0.771-0.005-1.391-0.632-1.386-1.403c0.004-0.768,0.628-1.386,1.395-1.386h0.008l8.367,0.049
				c0.771,0.005,1.391,0.632,1.386,1.403C1848.594,3235.985,1847.971,3236.603,1847.204,3236.603z M1819.317,3236.439h-0.008
				l-8.367-0.049c-0.771-0.005-1.391-0.632-1.386-1.403c0.004-0.768,0.628-1.386,1.394-1.386h0.008l8.367,0.049
				c0.771,0.006,1.391,0.632,1.386,1.403C1820.707,3235.821,1820.083,3236.439,1819.317,3236.439z M1791.428,3236.273h-0.005
				l-8.369-0.049c-0.771-0.006-1.391-0.632-1.386-1.403c0.004-0.768,0.628-1.386,1.394-1.386c0,0,0.005,0,0.008,0l8.367,0.049
				c0.771,0.006,1.391,0.632,1.386,1.403C1792.818,3235.655,1792.195,3236.273,1791.428,3236.273z M1763.539,3236.11
				c-0.003,0-0.006,0-0.006,0l-8.369-0.049c-0.771-0.006-1.391-0.632-1.386-1.403c0.004-0.768,0.628-1.386,1.395-1.386h0.008
				l8.367,0.049c0.771,0.006,1.391,0.632,1.386,1.403C1764.929,3235.492,1764.306,3236.11,1763.539,3236.11z M1735.652,3235.946
				h-0.006l-8.369-0.049c-0.771-0.006-1.391-0.632-1.386-1.403c0.004-0.771,0.727-1.291,1.402-1.386l8.367,0.049
				c0.771,0.006,1.39,0.632,1.386,1.403C1737.042,3235.328,1736.418,3235.946,1735.652,3235.946z M1707.763,3235.781h-0.008
				l-8.367-0.049c-0.771-0.006-1.391-0.632-1.386-1.402c0.004-0.768,0.628-1.386,1.394-1.386h0.008l8.367,0.049
				c0.771,0.005,1.39,0.632,1.386,1.403C1709.153,3235.162,1708.53,3235.781,1707.763,3235.781z M1679.874,3235.617h-0.008
				l-8.367-0.049c-0.771-0.006-1.391-0.632-1.386-1.403c0.004-0.768,0.628-1.386,1.395-1.386c0.003,0,0.005,0,0.005,0l8.369,0.049
				c0.771,0.005,1.39,0.632,1.386,1.403C1681.264,3234.999,1680.641,3235.617,1679.874,3235.617z M1652.317,3232.501
				c-0.144,0-0.293-0.022-0.437-0.071c-2.69-0.888-5.352-1.977-7.913-3.241c-0.691-0.341-0.975-1.177-0.635-1.866
				c0.342-0.689,1.175-0.972,1.869-0.635c2.444,1.204,4.987,2.244,7.554,3.094c0.731,0.242,1.129,1.029,0.886,1.762
				C1653.448,3232.131,1652.903,3232.501,1652.317,3232.501z M2143.418,3228.601c-0.41,0-0.814-0.18-1.089-0.523
				c-0.482-0.602-0.384-1.479,0.217-1.961c2.111-1.688,4.062-3.584,5.802-5.629c0.497-0.588,1.374-0.662,1.965-0.161
				c0.587,0.499,0.659,1.378,0.159,1.966c-1.855,2.182-3.936,4.202-6.184,6.003
				C2144.031,3228.5,2143.723,3228.601,2143.418,3228.601z M1628.76,3218.064c-0.354,0-0.709-0.133-0.98-0.403
				c-2.029-2.007-3.932-4.167-5.654-6.419c-0.468-0.61-0.351-1.487,0.26-1.955c0.611-0.466,1.49-0.351,1.954,0.261
				c1.646,2.149,3.463,4.213,5.401,6.131c0.547,0.542,0.553,1.424,0.011,1.972C1629.479,3217.925,1629.12,3218.064,1628.76,3218.064
				z M2158.334,3205.612c-0.116,0-0.234-0.013-0.351-0.043c-0.745-0.193-1.193-0.956-1-1.699c0.372-1.438,0.671-2.912,0.888-4.382
				l0.543-3.701c0.11-0.763,0.803-1.3,1.58-1.182c0.762,0.112,1.291,0.82,1.179,1.58l-0.543,3.712
				c-0.231,1.566-0.55,3.137-0.948,4.671C2159.52,3205.195,2158.953,3205.612,2158.334,3205.612z M1614.068,3194.647
				c-0.58,0-1.122-0.365-1.32-0.945c-0.917-2.683-1.65-5.466-2.183-8.269c-0.144-0.757,0.353-1.487,1.11-1.631
				c0.752-0.139,1.487,0.354,1.63,1.108c0.508,2.677,1.209,5.333,2.082,7.893c0.249,0.728-0.14,1.52-0.869,1.771
				C1614.369,3194.623,1614.218,3194.647,1614.068,3194.647z M2162.39,3178.025c-0.057,0-0.114-0.003-0.173-0.011
				c-0.764-0.095-1.307-0.79-1.212-1.555c0.334-2.699,0.666-5.463,0.994-8.296c0.088-0.765,0.788-1.313,1.545-1.226
				c0.765,0.09,1.313,0.782,1.224,1.547c-0.328,2.838-0.66,5.613-0.997,8.318C2163.685,3177.508,2163.085,3178.025,2162.39,3178.025
				z M1610.581,3167.123c-0.749,0-1.369-0.594-1.392-1.351l-0.27-8.364c-0.026-0.768,0.579-1.413,1.348-1.438
				c0.705-0.036,1.413,0.577,1.438,1.351l0.27,8.364c0.026,0.768-0.579,1.413-1.348,1.438
				C1610.612,3167.123,1610.597,3167.123,1610.581,3167.123z M2165.438,3150.3c-0.043,0-0.088-0.003-0.133-0.006
				c-0.767-0.073-1.329-0.754-1.256-1.522c0.26-2.732,0.515-5.507,0.76-8.32c0.067-0.768,0.733-1.293,1.51-1.269
				c0.767,0.065,1.335,0.744,1.268,1.509c-0.245,2.824-0.5,5.605-0.762,8.347C2166.756,3149.76,2166.149,3150.3,2165.438,3150.3z
				 M1609.683,3139.248c-0.749,0-1.368-0.596-1.392-1.351l-0.268-8.361c-0.026-0.768,0.579-1.414,1.348-1.438
				c0.754-0.011,1.413,0.58,1.438,1.351l0.268,8.362c0.026,0.768-0.579,1.413-1.348,1.438
				C1609.715,3139.248,1609.7,3139.248,1609.683,3139.248z M2167.69,3122.498c-0.031,0-0.063,0-0.094-0.003
				c-0.768-0.052-1.349-0.716-1.299-1.484c0.183-2.751,0.354-5.531,0.512-8.339c0.042-0.768,0.704-1.378,1.469-1.313
				c0.77,0.043,1.358,0.7,1.314,1.47c-0.158,2.813-0.33,5.605-0.512,8.367C2169.031,3121.932,2168.419,3122.498,2167.69,3122.498z
				 M1608.787,3111.373c-0.749,0-1.369-0.597-1.392-1.351l-0.268-8.361c-0.026-0.768,0.579-1.414,1.348-1.438
				c0.748-0.054,1.415,0.583,1.438,1.351l0.268,8.361c0.026,0.768-0.579,1.414-1.348,1.438H1608.787z M2169.092,3094.642h-0.049
				c-0.77-0.027-1.373-0.673-1.345-1.441c0.093-2.767,0.174-5.551,0.241-8.35c0.019-0.773,0.759-1.334,1.427-1.362
				c0.771,0.019,1.379,0.656,1.362,1.427c-0.066,2.811-0.148,5.605-0.244,8.378
				C2170.458,3094.049,2169.839,3094.642,2169.092,3094.642z M1607.891,3083.5c-0.749,0-1.369-0.596-1.392-1.351l-0.268-8.364
				c-0.026-0.768,0.579-1.414,1.348-1.438c0.741,0.041,1.415,0.583,1.438,1.351l0.268,8.364c0.026,0.768-0.579,1.413-1.348,1.438
				C1607.923,3083.5,1607.906,3083.5,1607.891,3083.5z M2169.559,3066.753c-0.769,0-1.393-0.624-1.394-1.392
				c-0.004-2.772-0.023-5.556-0.059-8.353c-0.01-0.768,0.607-1.4,1.376-1.411c0.684,0.008,1.402,0.605,1.412,1.378
				c0.035,2.802,0.054,5.597,0.059,8.38c0.001,0.771-0.622,1.397-1.393,1.397H2169.559z M1606.995,3055.625
				c-0.749,0-1.369-0.594-1.392-1.351l-0.27-8.364c-0.026-0.768,0.579-1.413,1.348-1.438c0.655-0.016,1.415,0.574,1.438,1.351
				l0.269,8.364c0.026,0.768-0.579,1.413-1.348,1.438H1606.995z M2168.97,3038.875c-0.743,0-1.36-0.586-1.392-1.337
				c-0.116-2.775-0.25-5.556-0.402-8.337c-0.044-0.768,0.546-1.427,1.315-1.468c0.763-0.065,1.425,0.545,1.468,1.315
				c0.155,2.792,0.289,5.583,0.404,8.375c0.033,0.768-0.565,1.419-1.334,1.452C2169.01,3038.875,2168.99,3038.875,2168.97,3038.875z
				 M1606.099,3027.75c-0.749,0-1.369-0.594-1.392-1.351l-0.269-8.361c-0.026-0.768,0.579-1.414,1.348-1.438
				c0.658-0.079,1.415,0.577,1.438,1.351l0.27,8.359c0.026,0.771-0.579,1.416-1.348,1.441
				C1606.146,3027.75,1606.116,3027.75,1606.099,3027.75z M2167.178,3011.044c-0.715,0-1.323-0.544-1.387-1.272
				c-0.246-2.77-0.512-5.542-0.799-8.307c-0.08-0.765,0.475-1.452,1.242-1.531c0.767-0.076,1.452,0.477,1.532,1.242
				c0.289,2.781,0.557,5.564,0.803,8.35c0.068,0.765-0.498,1.444-1.265,1.511
				C2167.261,3011.041,2167.219,3011.044,2167.178,3011.044z M1605.202,2999.875c-0.749,0-1.369-0.596-1.392-1.351l-0.268-8.361
				c-0.026-0.768,0.579-1.414,1.348-1.438c0.662-0.008,1.413,0.578,1.438,1.351l0.268,8.362c0.026,0.768-0.579,1.413-1.348,1.438
				C1605.233,2999.875,1605.218,2999.875,1605.202,2999.875z M2156.841,2991.513h-8.367c-0.771,0-1.394-0.624-1.394-1.394
				c0-0.771,0.624-1.395,1.394-1.395h8.367c0.771,0,1.395,0.624,1.395,1.395C2158.236,2990.89,2157.612,2991.513,2156.841,2991.513z
				 M2128.952,2991.513h-8.366c-0.771,0-1.395-0.624-1.395-1.394c0-0.771,0.624-1.395,1.395-1.395h8.366
				c0.771,0,1.395,0.624,1.395,1.395C2130.347,2990.89,2129.723,2991.513,2128.952,2991.513z M2101.063,2991.513h-8.367
				c-0.771,0-1.395-0.624-1.395-1.394c0-0.771,0.624-1.395,1.395-1.395h8.367c0.771,0,1.395,0.624,1.395,1.395
				C2102.458,2990.89,2101.834,2991.513,2101.063,2991.513z M2073.175,2991.513h-8.367c-0.771,0-1.394-0.624-1.394-1.394
				c0-0.771,0.624-1.395,1.394-1.395h8.367c0.771,0,1.395,0.624,1.395,1.395C2074.569,2990.89,2073.945,2991.513,2073.175,2991.513z
				 M2045.286,2991.513h-8.367c-0.771,0-1.394-0.624-1.394-1.394c0-0.771,0.624-1.395,1.394-1.395h8.367
				c0.771,0,1.394,0.624,1.394,1.395C2046.68,2990.89,2046.057,2991.513,2045.286,2991.513z M2017.397,2991.513h-8.367
				c-0.771,0-1.395-0.624-1.395-1.394c0-0.771,0.624-1.395,1.395-1.395h8.367c0.771,0,1.395,0.624,1.395,1.395
				C2018.791,2990.89,2018.168,2991.513,2017.397,2991.513z M1989.508,2991.513h-8.367c-0.771,0-1.394-0.624-1.394-1.394
				c0-0.771,0.624-1.395,1.394-1.395h8.367c0.771,0,1.394,0.624,1.394,1.395C1990.902,2990.89,1990.279,2991.513,1989.508,2991.513z
				 M1961.619,2991.513h-8.367c-0.771,0-1.394-0.624-1.394-1.394c0-0.771,0.624-1.395,1.394-1.395h8.367
				c0.771,0,1.394,0.624,1.394,1.395C1963.014,2990.89,1962.39,2991.513,1961.619,2991.513z M1933.73,2991.513h-8.367
				c-0.771,0-1.394-0.624-1.394-1.394c0-0.771,0.624-1.395,1.394-1.395h8.367c0.771,0,1.395,0.624,1.395,1.395
				C1935.125,2990.89,1934.501,2991.513,1933.73,2991.513z M1905.842,2991.513h-8.367c-0.771,0-1.394-0.624-1.394-1.394
				c0-0.771,0.624-1.395,1.394-1.395h8.367c0.771,0,1.394,0.624,1.394,1.395C1907.236,2990.89,1906.612,2991.513,1905.842,2991.513z
				 M1877.953,2991.513h-8.367c-0.771,0-1.394-0.624-1.394-1.394c0-0.771,0.624-1.395,1.394-1.395h8.367
				c0.771,0,1.394,0.624,1.394,1.395C1879.347,2990.89,1878.724,2991.513,1877.953,2991.513z M1850.064,2991.513h-8.367
				c-0.771,0-1.394-0.624-1.394-1.394c0-0.771,0.624-1.395,1.394-1.395h8.367c0.771,0,1.395,0.624,1.395,1.395
				C1851.458,2990.89,1850.835,2991.513,1850.064,2991.513z M1822.175,2991.513h-8.367c-0.771,0-1.395-0.624-1.395-1.394
				c0-0.771,0.624-1.395,1.395-1.395h8.367c0.771,0,1.394,0.624,1.394,1.395C1823.569,2990.89,1822.946,2991.513,1822.175,2991.513z
				 M1794.286,2991.513h-8.367c-0.771,0-1.394-0.624-1.394-1.394c0-0.771,0.624-1.395,1.394-1.395h8.367
				c0.771,0,1.394,0.624,1.394,1.395C1795.681,2990.89,1795.057,2991.513,1794.286,2991.513z M1766.397,2991.513h-8.367
				c-0.771,0-1.394-0.624-1.394-1.394c0-0.771,0.624-1.395,1.394-1.395h8.367c0.771,0,1.394,0.624,1.394,1.395
				C1767.792,2990.89,1767.168,2991.513,1766.397,2991.513z M1738.509,2991.513h-8.367c-0.771,0-1.394-0.624-1.394-1.394
				c0-0.771,0.624-1.395,1.394-1.395h8.367c0.771,0,1.395,0.624,1.395,1.395C1739.903,2990.89,1739.28,2991.513,1738.509,2991.513z
				 M1710.62,2991.513h-8.367c-0.771,0-1.394-0.624-1.394-1.394c0-0.771,0.624-1.395,1.394-1.395h8.367
				c0.771,0,1.394,0.624,1.394,1.395C1712.014,2990.89,1711.391,2991.513,1710.62,2991.513z M1682.731,2991.513h-8.367
				c-0.771,0-1.394-0.624-1.394-1.394c0-0.771,0.624-1.395,1.394-1.395h8.367c0.771,0,1.394,0.624,1.394,1.395
				C1684.125,2990.89,1683.502,2991.513,1682.731,2991.513z M1654.842,2991.513h-8.367c-0.771,0-1.394-0.624-1.394-1.394
				c0-0.771,0.624-1.395,1.394-1.395h8.367c0.771,0,1.395,0.624,1.395,1.395C1656.237,2990.89,1655.613,2991.513,1654.842,2991.513z
				 M1626.953,2991.513h-8.367c-0.771,0-1.394-0.624-1.394-1.394c0-0.771,0.624-1.395,1.394-1.395h8.367
				c0.771,0,1.394,0.624,1.394,1.395C1628.348,2990.89,1627.724,2991.513,1626.953,2991.513z"/>
			
				<linearGradient id="SVGID_00000003066275534928118220000005578234472420097211_" gradientUnits="userSpaceOnUse" x1="1851.1832" y1="2379.9626" x2="1834.3466" y2="2474.2478">
				<stop  offset="0" style="stop-color:#4F52FF"/>
				<stop  offset="1" style="stop-color:#4042E2"/>
			</linearGradient>
			<path style="fill:url(#SVGID_00000003066275534928118220000005578234472420097211_);" d="M1727.547,2848.457l1.406-15.05
				c1.587-3.593,4.882-6.136,8.776-6.756c14.558-2.318,50.663-6.391,68.048,6.601l2.597,17.489L1727.547,2848.457z"/>
			
				<linearGradient id="SVGID_00000014628771489136686390000002066738177747084174_" gradientUnits="userSpaceOnUse" x1="1843.6011" y1="2378.6082" x2="1826.7644" y2="2472.8931">
				<stop  offset="0" style="stop-color:#4F52FF"/>
				<stop  offset="1" style="stop-color:#4042E2"/>
			</linearGradient>
			<path style="fill:url(#SVGID_00000014628771489136686390000002066738177747084174_);" d="M1773.024,2833.976
				c-3.352,0.817-6.71,0.815-10.074-0.012c-4.07-1-6.942-4.642-6.942-8.815l0-47.125h23.982l0.001,47.09
				C1779.991,2829.306,1777.114,2832.979,1773.024,2833.976z"/>
			
				<linearGradient id="SVGID_00000093868667329844077050000010528359091865861047_" gradientUnits="userSpaceOnUse" x1="2076.2893" y1="2420.1597" x2="2059.4526" y2="2514.4448">
				<stop  offset="0" style="stop-color:#4F52FF"/>
				<stop  offset="1" style="stop-color:#4042E2"/>
			</linearGradient>
			<path style="fill:url(#SVGID_00000093868667329844077050000010528359091865861047_);" d="M1959.831,2848.457l1.406-15.05
				c1.587-3.593,4.882-6.136,8.775-6.756c14.558-2.318,50.664-6.391,68.048,6.601l2.597,17.489L1959.831,2848.457z"/>
			
				<linearGradient id="SVGID_00000164487644561281126390000007426790829089364664_" gradientUnits="userSpaceOnUse" x1="2068.2776" y1="2418.7292" x2="2051.4409" y2="2513.0144">
				<stop  offset="0" style="stop-color:#4F52FF"/>
				<stop  offset="1" style="stop-color:#4042E2"/>
			</linearGradient>
			<path style="fill:url(#SVGID_00000164487644561281126390000007426790829089364664_);" d="M2005.308,2833.976
				c-3.352,0.817-6.71,0.815-10.074-0.012c-4.07-1-6.942-4.642-6.941-8.815l0-52.09h23.982l0,52.055
				C2012.275,2829.306,2009.398,2832.979,2005.308,2833.976z"/>
			
				<linearGradient id="SVGID_00000165951628565164854150000000997120446934145927_" gradientUnits="userSpaceOnUse" x1="1948.3818" y1="2397.3193" x2="1931.545" y2="2491.6045">
				<stop  offset="0" style="stop-color:#4F52FF"/>
				<stop  offset="1" style="stop-color:#4042E2"/>
			</linearGradient>
			<path style="fill:url(#SVGID_00000165951628565164854150000000997120446934145927_);" d="M1753.573,2789.576l257.911-8.538
				c5.88-0.195,10.869-4.437,11.879-10.206c1.413-8.074,2.658-20.161,0.801-32.691c-2.112-14.249-14.368-24.834-28.835-25.178
				c-48.114-1.145-170.599-1.11-238.106,25.594c-7.14,2.824-12.435,8.926-14.243,16.359c-1.724,7.089-2.87,16.555-0.617,26.189
				C1743.559,2786.224,1748.296,2789.751,1753.573,2789.576z"/>
			<path style="fill:#91B3FA;" d="M1749.106,2777.826c-1.415,0-2.627-1.07-2.772-2.508c-0.042-0.422-1.01-10.412,1.593-20.034
				c2.07-7.645,8.115-13.789,15.777-16.039c14.443-4.238,42.051-11.442,64.675-12.079c1.55-0.038,2.823,1.174,2.865,2.71
				c0.043,1.541-1.17,2.824-2.71,2.868c-21.996,0.615-49.076,7.691-63.26,11.855c-5.813,1.705-10.397,6.357-11.963,12.141
				c-2.338,8.639-1.437,17.924-1.427,18.016c0.154,1.533-0.963,2.9-2.495,3.056
				C1749.294,2777.821,1749.198,2777.826,1749.106,2777.826z"/>
			
				<linearGradient id="SVGID_00000086672574254852134980000014778600849273725885_" gradientUnits="userSpaceOnUse" x1="1928.2919" y1="2786.7722" x2="2052.8826" y2="2288.4082">
				<stop  offset="0" style="stop-color:#4F52FF"/>
				<stop  offset="1" style="stop-color:#4042E2"/>
			</linearGradient>
			<path style="fill:url(#SVGID_00000086672574254852134980000014778600849273725885_);" d="M1607.885,2842.594
				c83.323-1.065,443.773-4.853,548.476,7.78c9.015,1.088,16.371,7.683,18.324,16.51c6.187,27.969,18.634,92.944,17.158,157.351
				c-0.201,8.765-6.627,16.16-15.281,17.798l-239.002,45.215h-84.898l-254.66-50.62c-8.976-1.784-15.593-9.387-16.057-18.486
				c-1.655-32.403-4.243-108.432,4.52-157.37C1588.328,2850.373,1597.273,2842.729,1607.885,2842.594z"/>
			<path style="fill:#FFFFFF;" d="M1854.691,3068.047c-0.09,0-0.181-0.008-0.274-0.027l-8.206-1.632
				c-0.755-0.15-1.246-0.882-1.095-1.64c0.151-0.751,0.875-1.261,1.64-1.095l8.132,1.618c0.061-0.008,0.124-0.014,0.187-0.014h8.367
				c0.771,0,1.394,0.624,1.394,1.395c0,0.771-0.624,1.394-1.394,1.394h-8.367c-0.066,0-0.129-0.005-0.192-0.014
				C1854.821,3068.042,1854.756,3068.047,1854.691,3068.047z M1919.22,3068.047h-8.367c-0.771,0-1.394-0.624-1.394-1.394
				c0-0.771,0.624-1.395,1.394-1.395h8.367c0.771,0,1.395,0.624,1.395,1.395C1920.614,3067.423,1919.99,3068.047,1919.22,3068.047z
				 M1891.331,3068.047h-8.367c-0.771,0-1.395-0.624-1.395-1.394c0-0.771,0.624-1.395,1.395-1.395h8.367
				c0.771,0,1.395,0.624,1.395,1.395C1892.725,3067.423,1892.101,3068.047,1891.331,3068.047z M1938.686,3067.469
				c-0.658,0-1.242-0.466-1.369-1.135c-0.143-0.757,0.354-1.487,1.111-1.629l8.221-1.555c0.764-0.136,1.487,0.354,1.629,1.111
				c0.143,0.757-0.354,1.487-1.111,1.629l-8.221,1.555C1938.859,3067.461,1938.772,3067.469,1938.686,3067.469z M1827.338,3062.611
				c-0.09,0-0.181-0.008-0.274-0.027l-8.206-1.631c-0.754-0.15-1.246-0.885-1.095-1.64c0.15-0.752,0.87-1.245,1.64-1.095
				l8.206,1.632c0.754,0.15,1.246,0.882,1.095,1.64C1828.571,3062.151,1827.99,3062.611,1827.338,3062.611z M1966.088,3062.284
				c-0.658,0-1.242-0.466-1.369-1.136c-0.143-0.757,0.354-1.487,1.111-1.629l8.221-1.555c0.754-0.145,1.486,0.354,1.629,1.111
				s-0.354,1.487-1.111,1.629l-8.221,1.555C1966.261,3062.276,1966.174,3062.284,1966.088,3062.284z M1799.984,3057.172
				c-0.09,0-0.181-0.008-0.274-0.028l-8.206-1.631c-0.754-0.15-1.246-0.882-1.095-1.64c0.15-0.751,0.877-1.25,1.639-1.095
				l8.206,1.632c0.754,0.15,1.246,0.882,1.095,1.64C1801.218,3056.712,1800.636,3057.172,1799.984,3057.172z M1993.491,3057.101
				c-0.658,0-1.242-0.466-1.369-1.135c-0.143-0.757,0.354-1.487,1.111-1.629l8.221-1.555c0.756-0.131,1.486,0.354,1.629,1.111
				c0.143,0.757-0.354,1.487-1.111,1.629l-8.221,1.555C1993.664,3057.093,1993.577,3057.101,1993.491,3057.101z M2020.894,3051.916
				c-0.658,0-1.242-0.466-1.369-1.136c-0.143-0.757,0.354-1.487,1.111-1.629l8.221-1.555c0.757-0.136,1.486,0.354,1.629,1.111
				c0.143,0.757-0.354,1.487-1.111,1.629l-8.221,1.555C2021.067,3051.907,2020.98,3051.916,2020.894,3051.916z M1772.63,3051.736
				c-0.09,0-0.181-0.008-0.274-0.027l-8.206-1.631c-0.754-0.15-1.246-0.883-1.095-1.64c0.151-0.754,0.871-1.256,1.639-1.095
				l8.206,1.631c0.754,0.15,1.246,0.885,1.095,1.639C1773.864,3051.275,1773.282,3051.736,1772.63,3051.736z M2048.297,3046.733
				c-0.658,0-1.242-0.466-1.368-1.136c-0.143-0.757,0.354-1.487,1.111-1.629l8.221-1.555c0.758-0.147,1.486,0.357,1.628,1.111
				c0.143,0.757-0.354,1.487-1.111,1.629l-8.221,1.555C2048.469,3046.725,2048.382,3046.733,2048.297,3046.733z M1745.277,3046.297
				c-0.09,0-0.181-0.008-0.273-0.028l-8.206-1.629c-0.756-0.15-1.246-0.882-1.096-1.639c0.148-0.752,0.889-1.261,1.638-1.095
				l8.206,1.629c0.756,0.15,1.247,0.882,1.096,1.639C1746.512,3045.836,1745.929,3046.297,1745.277,3046.297z M2075.699,3041.547
				c-0.658,0-1.242-0.466-1.369-1.136c-0.143-0.757,0.354-1.487,1.111-1.628l8.221-1.555c0.76-0.131,1.486,0.354,1.629,1.111
				c0.143,0.757-0.354,1.487-1.111,1.629l-8.221,1.555C2075.872,3041.539,2075.785,3041.547,2075.699,3041.547z M1717.923,3040.861
				c-0.09,0-0.181-0.008-0.274-0.027l-8.206-1.631c-0.754-0.15-1.246-0.883-1.095-1.639c0.151-0.752,0.873-1.245,1.64-1.095
				l8.206,1.631c0.754,0.15,1.246,0.882,1.095,1.639C1719.157,3040.4,1718.575,3040.861,1717.923,3040.861z M2103.102,3036.365
				c-0.658,0-1.242-0.466-1.369-1.136c-0.143-0.757,0.354-1.487,1.111-1.628l8.221-1.555c0.761-0.141,1.486,0.354,1.629,1.111
				s-0.354,1.487-1.111,1.629l-8.221,1.555C2103.275,3036.356,2103.188,3036.365,2103.102,3036.365z M1690.569,3035.425
				c-0.09,0-0.181-0.008-0.274-0.027l-8.206-1.631c-0.754-0.15-1.246-0.883-1.095-1.64c0.15-0.754,0.88-1.25,1.64-1.095l8.206,1.631
				c0.754,0.15,1.246,0.885,1.095,1.639C1691.803,3034.964,1691.221,3035.425,1690.569,3035.425z M2130.504,3031.179
				c-0.657,0-1.242-0.466-1.368-1.135c-0.143-0.757,0.354-1.487,1.111-1.629l8.221-1.555c0.762-0.125,1.487,0.357,1.629,1.111
				c0.143,0.757-0.354,1.487-1.111,1.629l-8.221,1.555C2130.678,3031.171,2130.59,3031.179,2130.504,3031.179z M1663.215,3029.986
				c-0.09,0-0.181-0.008-0.274-0.027l-8.206-1.631c-0.754-0.15-1.246-0.883-1.095-1.64c0.151-0.754,0.874-1.253,1.64-1.094
				l8.206,1.631c0.754,0.15,1.246,0.882,1.095,1.64C1664.449,3029.525,1663.868,3029.986,1663.215,3029.986z M2157.907,3025.996
				c-0.658,0-1.242-0.466-1.368-1.136c-0.143-0.757,0.354-1.487,1.111-1.629l8.221-1.555c0.764-0.134,1.487,0.354,1.629,1.111
				c0.143,0.757-0.354,1.487-1.111,1.629l-8.221,1.555C2158.08,3025.988,2157.993,3025.996,2157.907,3025.996z M1635.862,3024.55
				c-0.09,0-0.181-0.008-0.274-0.027l-8.206-1.631c-0.754-0.15-1.246-0.883-1.095-1.64c0.15-0.752,0.881-1.261,1.64-1.095
				l8.206,1.632c0.754,0.15,1.246,0.882,1.095,1.639C1637.096,3024.089,1636.514,3024.55,1635.862,3024.55z M1608.508,3019.114
				c-0.09,0-0.181-0.008-0.274-0.027l-7.088-1.411l-0.166-3.315c-0.037-0.768,0.557-1.421,1.326-1.457
				c0.75-0.155,1.423,0.553,1.46,1.326l0.056,1.136l4.957,0.986c0.754,0.15,1.246,0.885,1.095,1.64
				C1609.742,3018.656,1609.161,3019.114,1608.508,3019.114z M2171.334,3009.192c-0.763,0-1.385-0.613-1.394-1.378
				c-0.035-2.786-0.094-5.567-0.176-8.34c-0.022-0.771,0.584-1.411,1.354-1.435c0.728,0.022,1.412,0.58,1.435,1.353
				c0.082,2.789,0.14,5.586,0.176,8.388c0.01,0.768-0.607,1.4-1.377,1.411H2171.334z M1601.57,2996.182
				c-0.747,0-1.367-0.594-1.392-1.348c-0.091-2.686-0.177-5.483-0.256-8.372c-0.02-0.771,0.587-1.411,1.356-1.433
				c0.753,0.065,1.411,0.586,1.433,1.356c0.079,2.884,0.163,5.676,0.253,8.356c0.026,0.768-0.577,1.414-1.347,1.441H1601.57z
				 M2170.235,2981.333c-0.728,0-1.343-0.566-1.39-1.304c-0.181-2.797-0.38-5.573-0.597-8.331c-0.06-0.768,0.514-1.438,1.281-1.498
				c0.757-0.093,1.439,0.515,1.5,1.28c0.216,2.77,0.418,5.562,0.599,8.369c0.049,0.768-0.534,1.433-1.302,1.482
				C2170.297,2981.333,2170.265,2981.333,2170.235,2981.333z M1600.933,2968.295c-0.762,0-1.386-0.613-1.394-1.378
				c-0.031-2.751-0.054-5.548-0.067-8.377c-0.003-0.771,0.618-1.397,1.389-1.4h0.004c0.769,0,1.393,0.621,1.396,1.389
				c0.012,2.824,0.035,5.611,0.067,8.356c0.008,0.771-0.609,1.403-1.378,1.411H1600.933z M2167.818,2953.534
				c-0.703,0-1.307-0.528-1.385-1.245c-0.304-2.802-0.62-5.57-0.949-8.299c-0.091-0.762,0.453-1.457,1.217-1.55
				c0.779-0.106,1.46,0.452,1.552,1.218c0.33,2.74,0.648,5.518,0.952,8.331c0.083,0.765-0.471,1.454-1.237,1.536
				C2167.919,2953.531,2167.869,2953.534,2167.818,2953.534z M1600.968,2940.404c-0.007,0-0.014,0-0.014,0
				c-0.777-0.011-1.392-0.646-1.381-1.417c0.042-2.783,0.098-5.58,0.169-8.38c0.019-0.771,0.662-1.334,1.43-1.359
				c0.769,0.019,1.378,0.659,1.359,1.43c-0.071,2.789-0.127,5.578-0.169,8.353
				C1602.35,2939.794,1601.729,2940.404,1600.968,2940.404z M2164.281,2925.863c-0.681,0-1.276-0.499-1.378-1.193
				c-0.415-2.819-0.836-5.575-1.26-8.261c-0.121-0.76,0.399-1.476,1.159-1.596c0.754-0.115,1.475,0.4,1.595,1.16
				c0.426,2.696,0.85,5.463,1.265,8.293c0.112,0.76-0.415,1.468-1.177,1.583C2164.417,2925.857,2164.347,2925.863,2164.281,2925.863
				z M1601.879,2912.523c-0.025,0-0.049,0-0.049,0c-0.794-0.041-1.385-0.697-1.345-1.468c0.147-2.808,0.312-5.602,0.496-8.372
				c0.052-0.771,0.715-1.378,1.484-1.299c0.768,0.052,1.349,0.716,1.299,1.484c-0.184,2.759-0.349,5.537-0.493,8.334
				C1603.231,2911.946,1602.616,2912.523,1601.879,2912.523z M2159.733,2898.331c-0.66,0-1.247-0.471-1.37-1.144
				c-0.529-2.879-1.047-5.619-1.551-8.209c-0.147-0.757,0.346-1.49,1.102-1.637c0.754-0.15,1.488,0.349,1.635,1.103
				c0.507,2.601,1.028,5.352,1.557,8.241c0.139,0.757-0.362,1.484-1.119,1.623
				C2159.901,2898.323,2159.817,2898.331,2159.733,2898.331z M1604.065,2884.719c-0.05,0-0.102-0.003-0.154-0.009
				c-0.765-0.084-1.318-0.773-1.234-1.539c0.313-2.838,0.654-5.624,1.021-8.342c0.105-0.763,0.806-1.334,1.569-1.193
				c0.764,0.103,1.299,0.803,1.196,1.569c-0.365,2.696-0.703,5.455-1.013,8.272
				C1605.371,2884.19,1604.766,2884.719,1604.065,2884.719z M2153.024,2872.106c-0.053,0-0.107-0.003-0.163-0.008
				c-2.582-0.302-5.348-0.602-8.293-0.891c-0.767-0.076-1.328-0.76-1.251-1.525c0.075-0.768,0.735-1.283,1.524-1.253
				c2.964,0.294,5.746,0.594,8.345,0.896c0.764,0.09,1.313,0.782,1.223,1.547
				C2154.325,2871.583,2153.722,2872.106,2153.024,2872.106z M2125.248,2869.595c-0.034,0-0.068,0-0.102-0.003
				c-2.682-0.193-5.461-0.381-8.335-0.564c-0.768-0.049-1.352-0.711-1.303-1.479c0.048-0.773,0.716-1.356,1.48-1.305
				c2.883,0.183,5.67,0.371,8.36,0.564c0.768,0.057,1.345,0.725,1.29,1.492C2126.586,2869.034,2125.973,2869.595,2125.248,2869.595z
				 M2097.407,2867.931c-0.025,0-0.048,0-0.072-0.002c-2.719-0.139-5.503-0.272-8.35-0.403c-0.769-0.035-1.365-0.686-1.329-1.454
				c0.035-0.768,0.703-1.381,1.457-1.329c2.853,0.131,5.64,0.264,8.364,0.403c0.769,0.038,1.361,0.694,1.322,1.463
				C2098.76,2867.354,2098.144,2867.931,2097.407,2867.931z M2069.544,2866.711c0,0-0.035,0-0.054,0l-8.357-0.302
				c-0.771-0.027-1.373-0.673-1.345-1.443c0.027-0.765,0.714-1.335,1.441-1.345l8.368,0.302c0.769,0.03,1.37,0.678,1.34,1.446
				C2070.907,2866.12,2070.289,2866.711,2069.544,2866.711z M2041.667,2865.782h-0.042l-8.361-0.237
				c-0.77-0.022-1.377-0.662-1.356-1.433c0.02-0.771,0.555-1.337,1.433-1.356l8.367,0.237c0.771,0.024,1.375,0.667,1.353,1.436
				C2043.037,2865.186,2042.418,2865.782,2041.667,2865.782z M2013.787,2865.06c0,0-0.022,0-0.033,0l-8.364-0.185
				c-0.769-0.016-1.381-0.653-1.364-1.424c0.016-0.76,0.637-1.365,1.394-1.365c0,0,0.019,0,0.03,0l8.367,0.185
				c0.771,0.019,1.381,0.656,1.363,1.427C2015.162,2864.456,2014.541,2865.06,2013.787,2865.06z M1985.901,2864.5
				c0,0-0.018,0-0.026,0l-8.364-0.145c-0.769-0.014-1.384-0.648-1.371-1.416c0.012-0.762,0.635-1.373,1.394-1.373h0.023l8.369,0.145
				c0.771,0.013,1.382,0.651,1.368,1.421C1987.28,2863.892,1986.659,2864.5,1985.901,2864.5z M1614.913,2864.497
				c-0.762,0-1.385-0.613-1.395-1.375c-0.01-0.771,0.607-1.402,1.377-1.413l8.373-0.101h0.016c0.762,0,1.385,0.613,1.394,1.378
				c0.01,0.771-0.607,1.403-1.378,1.411l-8.371,0.101H1614.913z M1642.815,2864.178c-0.764,0-1.386-0.615-1.394-1.381
				c-0.008-0.771,0.61-1.4,1.381-1.408l8.371-0.084h0.014c0.764,0,1.387,0.616,1.394,1.381c0.007,0.771-0.612,1.4-1.381,1.408
				l-8.371,0.084C1642.829,2864.178,1642.819,2864.178,1642.815,2864.178z M1958.012,2864.061c0,0-0.012,0-0.019,0l-8.364-0.109
				c-0.769-0.011-1.386-0.643-1.377-1.411c0.01-0.765,0.632-1.378,1.395-1.378c0.006,0,0.011,0,0.011,0l8.374,0.109
				c0.771,0.011,1.386,0.643,1.375,1.414C1959.395,2863.448,1958.773,2864.061,1958.012,2864.061z M1670.716,2863.908
				c-0.764,0-1.388-0.616-1.394-1.381c-0.007-0.771,0.611-1.4,1.382-1.408l8.371-0.074c0,0,0.008,0,0.012,0
				c0.765,0,1.387,0.616,1.394,1.384c0.007,0.768-0.613,1.4-1.382,1.406l-8.371,0.073H1670.716z M1930.124,2863.731h-0.014
				l-8.365-0.079c-0.769-0.006-1.389-0.638-1.382-1.406c0.007-0.768,0.629-1.383,1.395-1.383c0,0,0.008,0,0.012,0l8.368,0.079
				c0.771,0.008,1.389,0.637,1.381,1.408C1931.511,2863.116,1930.889,2863.731,1930.124,2863.731z M1698.615,2863.682
				c-0.765,0-1.389-0.618-1.395-1.384c-0.005-0.771,0.614-1.4,1.385-1.405l8.367-0.06h0.011c0.765,0,1.389,0.618,1.394,1.384
				c0.005,0.771-0.614,1.4-1.384,1.405l-8.369,0.06H1698.615z M1902.236,2863.494h-0.01l-8.365-0.054
				c-0.769-0.006-1.39-0.632-1.386-1.403c0.004-0.768,0.628-1.386,1.394-1.386h0.008l8.368,0.054
				c0.771,0.005,1.391,0.635,1.385,1.405C1903.625,2862.876,1903.001,2863.494,1902.236,2863.494z M1726.513,2863.494
				c-0.767,0-1.39-0.618-1.394-1.386c-0.004-0.771,0.615-1.397,1.386-1.402l8.371-0.046c0,0,0.004,0,0.007,0
				c0.767,0,1.39,0.621,1.395,1.389c0.004,0.768-0.618,1.397-1.388,1.4l-8.368,0.046H1726.513z M1754.411,2863.355
				c-0.768,0-1.392-0.621-1.394-1.389c-0.003-0.771,0.618-1.397,1.389-1.4l8.369-0.033h0.004c0.77,0,1.393,0.621,1.396,1.389
				c0.003,0.771-0.618,1.397-1.389,1.4l-8.369,0.033H1754.411z M1874.345,2863.334h-0.004l-8.368-0.033
				c-0.771-0.003-1.392-0.629-1.389-1.4c0.003-0.768,0.627-1.389,1.394-1.389h0.005l8.367,0.033c0.771,0.003,1.392,0.629,1.389,1.4
				C1875.737,2862.713,1875.114,2863.334,1874.345,2863.334z M1782.307,2863.26c-0.768,0-1.392-0.621-1.394-1.389
				c-0.003-0.771,0.62-1.397,1.39-1.4l8.37-0.019c0.715-0.057,1.396,0.624,1.397,1.392c0.001,0.771-0.621,1.394-1.392,1.397
				l-8.367,0.019H1782.307z M1846.454,2863.244h-0.001l-8.367-0.014c-0.771,0-1.395-0.626-1.393-1.397
				c0.001-0.768,0.625-1.392,1.395-1.392h0.001l8.368,0.014c0.771,0.002,1.393,0.626,1.392,1.397
				C1847.847,2862.62,1847.223,2863.244,1846.454,2863.244z M1810.198,2863.217c-0.769,0-1.393-0.624-1.394-1.392
				c-0.001-0.771,0.622-1.397,1.393-1.397h8.341c0.769,0,1.408,0.626,1.407,1.394c0,0.771-0.61,1.395-1.379,1.395h-8.365H1810.198z"
				/>
			
				<linearGradient id="SVGID_00000002356981525189938360000004677323572323789697_" gradientUnits="userSpaceOnUse" x1="1914.34" y1="2859.8801" x2="1880.8746" y2="3125.0271">
				<stop  offset="0" style="stop-color:#09005D"/>
				<stop  offset="1" style="stop-color:#1A0F91"/>
			</linearGradient>
			<path style="fill:url(#SVGID_00000002356981525189938360000004677323572323789697_);" d="M1929.567,3122.891h-74.377
				c-9.747,0-17.955-7.252-19.111-16.885l-8.594-71.57c-1.369-11.401,7.576-21.431,19.112-21.431h89.351
				c11.302,0,20.171,9.646,19.172,20.851l-6.381,71.57C1947.858,3115.312,1939.538,3122.891,1929.567,3122.891z"/>
			<defs>
				<filter id="Adobe_OpacityMaskFilter" filterUnits="userSpaceOnUse" x="1842.618" y="3026.093" width="97.308" height="83.635">
					<feFlood  style="flood-color:white;flood-opacity:1" result="back"/>
					<feBlend  in="SourceGraphic" in2="back" mode="normal"/>
				</filter>
			</defs>
			
				<mask maskUnits="userSpaceOnUse" x="1842.618" y="3026.093" width="97.308" height="83.635" id="SVGID_00000172427605183222622900000013632609282382856362_">
				<g style="filter:url(#Adobe_OpacityMaskFilter);">
					<defs>
						
							<filter id="Adobe_OpacityMaskFilter_00000084513183572136476170000003145711321261198982_" filterUnits="userSpaceOnUse" x="1842.618" y="3026.093" width="97.308" height="83.635">
							<feFlood  style="flood-color:white;flood-opacity:1" result="back"/>
							<feBlend  in="SourceGraphic" in2="back" mode="normal"/>
						</filter>
					</defs>
					
						<mask maskUnits="userSpaceOnUse" x="1842.618" y="3026.093" width="97.308" height="83.635" id="SVGID_00000172427605183222622900000013632609282382856362_">
						<g style="filter:url(#Adobe_OpacityMaskFilter_00000084513183572136476170000003145711321261198982_);">
						</g>
					</mask>
					
						<linearGradient id="SVGID_00000069375467111695058990000005955266792932330157_" gradientUnits="userSpaceOnUse" x1="1842.6179" y1="3067.9099" x2="1939.9264" y2="3067.9099">
						<stop  offset="0" style="stop-color:#FFFFFF"/>
						<stop  offset="1" style="stop-color:#000000"/>
					</linearGradient>
					
						<path style="mask:url(#SVGID_00000172427605183222622900000013632609282382856362_);fill:url(#SVGID_00000069375467111695058990000005955266792932330157_);" d="
						M1920.419,3109.727h-56.609c-7.418,0-13.666-5.519-14.546-12.851l-6.54-54.473c-1.042-8.677,5.766-16.311,14.546-16.311h68.006
						c8.602,0,15.352,7.342,14.592,15.87l-4.857,54.472C1934.34,3103.959,1928.008,3109.727,1920.419,3109.727z"/>
				</g>
			</mask>
			
				<linearGradient id="SVGID_00000131340910998029187420000014680142534467658686_" gradientUnits="userSpaceOnUse" x1="1912.4443" y1="2659.5488" x2="1875.4042" y2="3326.2783">
				<stop  offset="0" style="stop-color:#4F52FF"/>
				<stop  offset="1" style="stop-color:#4042E2"/>
			</linearGradient>
			<path style="fill:url(#SVGID_00000131340910998029187420000014680142534467658686_);" d="M1920.419,3109.727h-56.609
				c-7.418,0-13.666-5.519-14.546-12.851l-6.54-54.473c-1.042-8.677,5.766-16.311,14.546-16.311h68.006
				c8.602,0,15.352,7.342,14.592,15.87l-4.857,54.472C1934.34,3103.959,1928.008,3109.727,1920.419,3109.727z"/>
		</g>
		<g>
			<g>
				<path style="fill:#BDD0FB;" d="M1800.18,1663.813c0,0,319.26,72.84,338.863,53.238
					c-57.406,51.805-123.213,88.209-123.213,88.209s-268.828-43.041-322.034-100.629
					C1742.801,1677.847,1800.18,1663.813,1800.18,1663.813z"/>
				<path style="opacity:0.7;fill:#FFFFFF;" d="M2026.33,1648.044l-79.808,86.493c0,0,251.342,79.092,351.445,0
					c77-60.19,81.2-121.097,81.2-121.097S2198.548,1749.854,2026.33,1648.044z"/>
			</g>
			<g>
				<polygon style="fill:#91B3FA;" points="1852.028,2096.954 2141.271,2076.702 2129.856,2086.361 2129.856,2097.577 
					2090.481,2097.577 2099.552,2112.532 2148.798,2112.532 2130.655,2140.573 2126.767,2265.823 2098.256,2265.823 
					2124.175,2298.226 2126.767,2475.195 2148.798,2480.18 2129.359,2487.658 2130.655,2523.799 1864.395,2537.503 
					1801.486,2394.188 1793.711,2143.689 				"/>
				<polygon style="fill:#BDD0FB;" points="1657.238,2054.581 1853.821,2096.331 1853.821,2191.047 1804.327,2173.599 
					1806.795,2186.062 1853.386,2208.495 1860.083,2315.673 1803.279,2291.994 1803.279,2303.211 1861.596,2335.614 
					1861.596,2415.375 1808.214,2387.957 1810.931,2404.158 1861.596,2430.33 1864.395,2537.503 1678.052,2496.912 
					1682.384,2417.867 1643.444,2397.927 1671.924,2377.987 1670.612,2293.24 1643.39,2254.606 1662.825,2242.144 
					1661.527,2124.995 1643.383,2098.823 1659.058,2071.406 				"/>
				<polygon style="fill:#7D97F4;" points="1662.821,2054.581 1895.118,2031.214 2141.022,2076.702 1853.324,2096.331 				"/>
				<g>
					<polygon style="fill:#7D97F4;" points="1901.922,2183.569 2129.783,2168.654 2129.435,2179.861 					"/>
					<path style="fill:#7D97F4;" d="M1938.856,2322.684c3.888-2.648,185.516-11.061,185.516-11.061l0.274,18.718L1938.856,2322.684z
						"/>
				</g>
				<path style="fill:#BDD0FB;" d="M1643.382,2031.214l217.718,45.489c0,0,257.892-6.543,279.923-53.901
					c-37.582,11.216-248.82-24.925-248.82-24.925L1643.382,2031.214z"/>
				<path style="opacity:0.6;fill:#FFFFFF;" d="M1648.566,1979.182c0,0,184.023,68.545,243.636,68.545
					c59.613,0,232.443-74.776,232.443-74.776s-246.699-5.745-275.209-35.898C1785.935,1956.749,1648.566,1979.182,1648.566,1979.182
					z"/>
				<path style="fill:#BDD0FB;" d="M1675.781,1960.488c0,0,193.565,54.836,210.825,56.082
					c26.332,1.247,232.386-98.455,232.386-98.455l-226.789-28.664C1892.202,1889.451,1737.986,1971.704,1675.781,1960.488z"/>
				<path style="opacity:0.7;fill:#FFFFFF;" d="M1667.681,2158.333c-2.982-8.391,138.017,51.408,138.017,51.408l-21.383,8.412
					C1784.315,2218.153,1673.653,2175.136,1667.681,2158.333z"/>
				<path style="opacity:0.7;fill:#FFFFFF;" d="M1831.941,2349.946c3.885,0.15-147.737-51.408-147.737-51.408
					S1759.044,2347.142,1831.941,2349.946z"/>
			</g>
		</g>
		<g>
			<path style="fill:#91B3FA;" d="M3179.617,1585.054H2278.93c-36.513,0-67.032-27.778-70.459-64.13l-56.766-602.245
				c-3.864-40.992,27.945-76.616,69.112-77.4l957.453-18.229c39.606-0.754,72.119,31.145,72.119,70.759v620.474
				C3250.389,1553.369,3218.703,1585.054,3179.617,1585.054z"/>
			<path style="opacity:0.87;fill:#FFFFFF;" d="M2209.274,972.355l40.259,520.768c1.749,22.622,20.493,40.157,43.181,40.394
				l864.46,9.056c24.352,0.255,44.228-19.415,44.228-43.768V938.147c0-24.758-20.517-44.588-45.261-43.744l-904.718,30.834
				C2226.523,926.085,2207.353,947.516,2209.274,972.355z"/>
			<path style="fill:#7D97F4;" d="M2670.779,967.594l487.481-14.582c4.997-0.149,9.129,3.861,9.129,8.86v7.849
				c0,4.848-3.895,8.796-8.742,8.863l-487.481,6.732c-4.942,0.068-8.986-3.92-8.986-8.863l0,0
				C2662.18,971.661,2665.989,967.737,2670.779,967.594z"/>
			<path style="fill:#7D97F4;" d="M2662.18,1017.323v3.346c0,4.895,3.969,8.863,8.864,8.863h487.481
				c4.895,0,8.864-3.968,8.864-8.863v-3.346c0-4.895-3.969-8.864-8.864-8.864h-487.481
				C2666.149,1008.459,2662.18,1012.428,2662.18,1017.323z"/>
			<g>
				<path style="fill:#7D97F4;" d="M2876.321,1455.693c-2.197-0.004-3.973-1.79-3.968-3.989l0.031-11.932
					c0.006-2.19,1.784-3.966,3.977-3.966h0.01c2.196,0.004,3.973,1.79,3.967,3.989l-0.031,11.932
					c-0.006,2.191-1.785,3.966-3.978,3.966H2876.321z M2876.422,1415.92c-2.197-0.004-3.974-1.79-3.969-3.988l0.032-11.932
					c0.006-2.191,1.785-3.966,3.977-3.966h0.01c2.196,0.004,3.974,1.79,3.967,3.989l-0.031,11.932
					c-0.006,2.191-1.785,3.965-3.978,3.965H2876.422z M2876.523,1376.148c-2.196-0.004-3.973-1.79-3.967-3.988l0.031-11.932
					c0.006-2.191,1.785-3.966,3.978-3.966h0.01c2.197,0.004,3.973,1.791,3.967,3.99l-0.031,11.932
					c-0.006,2.19-1.785,3.965-3.978,3.965H2876.523z M2876.624,1336.376c-2.197-0.004-3.973-1.79-3.968-3.989l0.031-11.931
					c0.006-2.191,1.785-3.966,3.977-3.966h0.01c2.196,0.004,3.973,1.79,3.968,3.989l-0.031,11.932
					c-0.006,2.19-1.785,3.965-3.977,3.965H2876.624z"/>
			</g>
			<g>
				<path style="fill:#7D97F4;" d="M2672.597,1440.382v-11.932c0-2.199,1.781-3.978,3.978-3.978c2.196,0,3.977,1.779,3.977,3.978
					v11.932c0,2.198-1.781,3.977-3.977,3.977C2674.378,1444.359,2672.597,1442.581,2672.597,1440.382z M2672.597,1400.61v-11.931
					c0-2.199,1.781-3.978,3.978-3.978c2.196,0,3.977,1.779,3.977,3.978v11.931c0,2.198-1.781,3.977-3.977,3.977
					C2674.378,1404.587,2672.597,1402.808,2672.597,1400.61z M2672.597,1360.838v-11.932c0-2.198,1.781-3.977,3.978-3.977
					c2.196,0,3.977,1.779,3.977,3.977v11.932c0,2.198-1.781,3.977-3.977,3.977
					C2674.378,1364.815,2672.597,1363.036,2672.597,1360.838z M2672.597,1321.065v-11.932c0-2.198,1.781-3.977,3.978-3.977
					c2.196,0,3.977,1.779,3.977,3.977v11.932c0,2.198-1.781,3.978-3.977,3.978
					C2674.378,1325.043,2672.597,1323.264,2672.597,1321.065z M2672.597,1281.293v-11.932c0-2.198,1.781-3.977,3.978-3.977
					c2.196,0,3.977,1.779,3.977,3.977v11.932c0,2.198-1.781,3.978-3.977,3.978
					C2674.378,1285.271,2672.597,1283.491,2672.597,1281.293z"/>
			</g>
			<g>
				<path style="fill:#7D97F4;" d="M2524.092,1477.225c-2.195-0.069-3.919-1.907-3.851-4.101l0.221-7.124
					c0.068-2.194,1.845-3.996,4.1-3.853c2.194,0.07,3.918,1.907,3.85,4.102l-0.221,7.123c-0.066,2.152-1.833,3.852-3.973,3.852
					C2524.177,1477.225,2524.135,1477.225,2524.092,1477.225z M2525.176,1442.277c-2.195-0.07-3.919-1.907-3.852-4.102l0.371-11.927
					c0.068-2.195,1.859-3.916,4.1-3.854c2.195,0.07,3.919,1.907,3.85,4.102l-0.371,11.928c-0.066,2.152-1.833,3.853-3.973,3.853
					C2525.261,1442.277,2525.219,1442.277,2525.176,1442.277z M2526.413,1402.525c-2.197-0.07-3.921-1.903-3.853-4.102l0.369-11.928
					c0.068-2.191,1.975-3.833,4.098-3.853c2.196,0.07,3.921,1.903,3.853,4.101l-0.369,11.928c-0.066,2.152-1.833,3.853-3.974,3.853
					C2526.496,1402.525,2526.453,1402.525,2526.413,1402.525z M2527.646,1362.772c-2.196-0.07-3.921-1.903-3.853-4.101l0.369-11.928
					c0.068-2.194,1.989-3.962,4.097-3.853c2.196,0.069,3.921,1.903,3.853,4.101l-0.369,11.927c-0.066,2.152-1.833,3.853-3.973,3.853
					C2527.729,1362.772,2527.687,1362.772,2527.646,1362.772z M2528.877,1323.019c-2.194-0.069-3.919-1.907-3.851-4.101
					l0.371-11.928c0.069-2.195,1.896-3.876,4.1-3.853c2.194,0.07,3.919,1.907,3.851,4.101l-0.371,11.928
					c-0.066,2.152-1.833,3.852-3.973,3.852C2528.962,1323.019,2528.92,1323.019,2528.877,1323.019z M2530.111,1283.266
					c-2.195-0.07-3.92-1.908-3.851-4.102l0.371-11.928c0.068-2.194,1.909-4.004,4.099-3.853c2.195,0.07,3.919,1.907,3.851,4.102
					l-0.371,11.927c-0.066,2.152-1.833,3.854-3.973,3.854C2530.196,1283.266,2530.153,1283.266,2530.111,1283.266z
					 M2531.343,1243.514c-2.195-0.07-3.919-1.907-3.85-4.102l0.371-11.928c0.069-2.194,1.817-3.923,4.098-3.852
					c2.195,0.07,3.92,1.907,3.852,4.102l-0.371,11.928c-0.066,2.151-1.833,3.853-3.973,3.853
					C2531.429,1243.514,2531.386,1243.514,2531.343,1243.514z"/>
			</g>
			<g>
				<path style="fill:#7D97F4;" d="M2375.42,1450.985v-11.932c0-2.198,1.781-3.977,3.977-3.977c2.197,0,3.977,1.779,3.977,3.977
					v11.932c0,2.198-1.781,3.977-3.977,3.977C2377.201,1454.962,2375.42,1453.184,2375.42,1450.985z M2375.42,1411.213v-11.932
					c0-2.198,1.781-3.977,3.977-3.977c2.197,0,3.977,1.779,3.977,3.977v11.932c0,2.198-1.781,3.977-3.977,3.977
					C2377.201,1415.19,2375.42,1413.412,2375.42,1411.213z M2375.42,1371.441v-11.932c0-2.198,1.781-3.977,3.977-3.977
					c2.197,0,3.977,1.779,3.977,3.977v11.932c0,2.198-1.781,3.978-3.977,3.978C2377.201,1375.418,2375.42,1373.639,2375.42,1371.441
					z M2375.42,1331.669v-11.932c0-2.198,1.781-3.978,3.977-3.978c2.197,0,3.977,1.779,3.977,3.978v11.932
					c0,2.198-1.781,3.978-3.977,3.978C2377.201,1335.646,2375.42,1333.867,2375.42,1331.669z M2375.42,1291.896v-11.931
					c0-2.199,1.781-3.977,3.977-3.977c2.197,0,3.977,1.779,3.977,3.977v11.931c0,2.198-1.781,3.977-3.977,3.977
					C2377.201,1295.873,2375.42,1294.095,2375.42,1291.896z M2375.42,1252.124v-11.932c0-2.198,1.781-3.977,3.977-3.977
					c2.197,0,3.977,1.779,3.977,3.977v11.932c0,2.198-1.781,3.977-3.977,3.977C2377.201,1256.101,2375.42,1254.323,2375.42,1252.124
					z M2375.42,1212.352v-11.932c0-2.198,1.781-3.977,3.977-3.977c2.197,0,3.977,1.779,3.977,3.977v11.932
					c0,2.198-1.781,3.977-3.977,3.977C2377.201,1216.329,2375.42,1214.55,2375.42,1212.352z M2375.42,1172.58v-11.932
					c0-2.198,1.781-3.977,3.977-3.977c2.197,0,3.977,1.779,3.977,3.977v11.932c0,2.198-1.781,3.978-3.977,3.978
					C2377.201,1176.557,2375.42,1174.778,2375.42,1172.58z M2375.42,1132.808v-11.932c0-2.198,1.781-3.977,3.977-3.977
					c2.197,0,3.977,1.779,3.977,3.977v11.932c0,2.198-1.781,3.978-3.977,3.978C2377.201,1136.785,2375.42,1135.006,2375.42,1132.808
					z"/>
			</g>
			<g>
				<path style="fill:#7D97F4;" d="M2329.294,1501.912c-3.068,0-5.674-2.35-5.939-5.461l-40.771-481.504
					c-0.278-3.286,2.157-6.172,5.442-6.451c3.302-0.178,6.167,2.16,6.447,5.442l40.771,481.504c0.278,3.286-2.157,6.172-5.441,6.451
					C2329.632,1501.905,2329.461,1501.912,2329.294,1501.912z"/>
				<g>
					<polygon style="fill:#7D97F4;" points="2270.378,1039.83 2288.826,1017.956 2310.689,1036.416 2309.24,1019.303 
						2287.378,1000.855 2268.929,1022.715 					"/>
				</g>
			</g>
			<g>
				<path style="fill:#7D97F4;" d="M3137.327,1479.215h-838.963c-3.295,0-5.966-2.672-5.966-5.966s2.67-5.966,5.966-5.966h838.963
					c3.295,0,5.966,2.672,5.966,5.966S3140.622,1479.215,3137.327,1479.215z"/>
				<g>
					<polygon style="fill:#7D97F4;" points="3113.56,1493.474 3133.799,1473.247 3113.56,1453.019 3130.735,1453.019 
						3150.963,1473.247 3130.735,1493.474 					"/>
				</g>
			</g>
			<g>
				<path style="fill:#7D97F4;" d="M3055.256,1340.863c2.944,0,5.507-2.178,5.905-5.177c0.435-3.266-1.861-6.269-5.127-6.704
					c-4.408-0.586-443.668-60.738-684.131-238.043c-2.652-1.962-6.386-1.395-8.343,1.258c-1.953,2.653-1.39,6.389,1.263,8.343
					c242.946,179.138,685.199,239.682,689.638,240.272C3054.727,1340.847,3054.993,1340.863,3055.256,1340.863z"/>
			</g>
			<g>
				<path style="fill:#7D97F4;" d="M3054.179,1307.149c-0.127,0.09-0.253,0.188-0.377,0.29c-2.535,2.102-2.882,5.866-0.779,8.399
					l15.022,18.083l-25.861,20.655c-2.574,2.055-2.996,5.809-0.94,8.384c2.056,2.576,5.83,3.064,8.385,0.937l30.615-24.447
					c1.251-0.997,2.05-2.46,2.214-4.054c0.161-1.593-0.323-3.185-1.345-4.418l-18.907-22.762
					C3060.2,1305.804,3056.698,1305.371,3054.179,1307.149z"/>
			</g>
		</g>
		<g>
			<path style="fill:#7D97F4;" d="M2576.211,1195.862h-727.362c-31.164,0-56.427-25.263-56.427-56.427V482.318h840.216v657.117
				C2632.638,1170.599,2607.375,1195.862,2576.211,1195.862z"/>
			
				<linearGradient id="SVGID_00000103957784523566179020000010956578947026884539_" gradientUnits="userSpaceOnUse" x1="2331.334" y1="561.2776" x2="2949.9539" y2="-617.8596">
				<stop  offset="0" style="stop-color:#4F52FF"/>
				<stop  offset="1" style="stop-color:#4042E2"/>
			</linearGradient>
			<path style="fill:url(#SVGID_00000103957784523566179020000010956578947026884539_);" d="M2615.881,1107.663H1809.18
				c-9.255,0-16.757-7.502-16.757-16.757V480.411h840.216v610.495C2632.638,1100.16,2625.136,1107.663,2615.881,1107.663z"/>
			<g>
				<rect x="1840.792" y="507.838" style="fill:#7D97F4;" width="28.927" height="49.177"/>
				<rect x="1905.879" y="507.838" style="fill:#7D97F4;" width="28.927" height="49.177"/>
				<rect x="1963.372" y="507.838" style="fill:#7D97F4;" width="28.927" height="49.177"/>
				<rect x="2028.459" y="507.838" style="fill:#7D97F4;" width="28.927" height="49.177"/>
				<rect x="2085.952" y="507.838" style="fill:#7D97F4;" width="28.927" height="49.177"/>
				<rect x="2151.039" y="507.838" style="fill:#7D97F4;" width="28.927" height="49.177"/>
				<rect x="2208.532" y="507.838" style="fill:#7D97F4;" width="28.927" height="49.177"/>
				<rect x="2273.618" y="507.838" style="fill:#7D97F4;" width="28.927" height="49.177"/>
				<rect x="2331.112" y="507.838" style="fill:#7D97F4;" width="28.927" height="49.177"/>
				<rect x="2396.198" y="507.838" style="fill:#7D97F4;" width="28.927" height="49.177"/>
				<rect x="2453.691" y="507.838" style="fill:#7D97F4;" width="28.927" height="49.177"/>
				<rect x="2518.778" y="507.838" style="fill:#7D97F4;" width="28.927" height="49.177"/>
			</g>
			<g>
				<g>
					
						<linearGradient id="SVGID_00000016786600295673348050000015733063362572141712_" gradientUnits="userSpaceOnUse" x1="2350.8279" y1="-249.9856" x2="2289.6497" y2="130.6778">
						<stop  offset="0" style="stop-color:#E1473D"/>
						<stop  offset="1" style="stop-color:#E9605A"/>
					</linearGradient>
					
						<rect x="2166.37" y="582.461" style="fill:url(#SVGID_00000016786600295673348050000015733063362572141712_);" width="87.311" height="87.311"/>
					<rect x="2272.483" y="582.461" style="fill:#BDD0FB;" width="87.311" height="87.311"/>
					<rect x="2377.515" y="582.461" style="fill:#BDD0FB;" width="87.311" height="87.311"/>
					<rect x="2481.682" y="582.461" style="fill:#BDD0FB;" width="87.311" height="87.311"/>
				</g>
				<g>
					<rect x="1851.166" y="692.248" style="fill:#BDD0FB;" width="87.311" height="87.311"/>
					<rect x="1956.198" y="692.248" style="fill:#BDD0FB;" width="87.311" height="87.311"/>
					<rect x="2060.365" y="692.248" style="fill:#BDD0FB;" width="87.311" height="87.311"/>
					<rect x="2166.262" y="692.248" style="fill:#BDD0FB;" width="87.311" height="87.311"/>
					<rect x="2272.375" y="692.248" style="fill:#BDD0FB;" width="87.311" height="87.311"/>
					<rect x="2377.406" y="692.248" style="fill:#BDD0FB;" width="87.311" height="87.311"/>
					<rect x="2481.574" y="692.248" style="fill:#BDD0FB;" width="87.311" height="87.311"/>
				</g>
				<g>
					<rect x="1853.759" y="796.848" style="fill:#BDD0FB;" width="87.311" height="87.311"/>
					<rect x="1958.791" y="796.848" style="fill:#BDD0FB;" width="87.311" height="87.311"/>
					<rect x="2062.959" y="796.848" style="fill:#BDD0FB;" width="87.311" height="87.311"/>
					<rect x="2168.855" y="796.848" style="fill:#BDD0FB;" width="87.311" height="87.311"/>
					<rect x="2274.968" y="796.848" style="fill:#BDD0FB;" width="87.311" height="87.311"/>
					<rect x="2380" y="796.848" style="fill:#BDD0FB;" width="87.311" height="87.311"/>
					<rect x="2484.167" y="796.848" style="fill:#BDD0FB;" width="87.311" height="87.311"/>
				</g>
				<g>
					<rect x="1856.353" y="900.151" style="fill:#BDD0FB;" width="87.311" height="87.311"/>
					<rect x="1961.385" y="900.151" style="fill:#BDD0FB;" width="87.311" height="87.311"/>
					<rect x="2065.552" y="900.151" style="fill:#BDD0FB;" width="87.311" height="87.311"/>
					<rect x="2171.449" y="900.151" style="fill:#BDD0FB;" width="87.311" height="87.311"/>
					<rect x="2277.561" y="900.151" style="fill:#BDD0FB;" width="87.311" height="87.311"/>
					<rect x="2382.593" y="900.151" style="fill:#BDD0FB;" width="87.311" height="87.311"/>
					<rect x="2486.761" y="900.151" style="fill:#BDD0FB;" width="87.311" height="87.311"/>
				</g>
				<g>
					<rect x="1856.353" y="1003.221" style="fill:#BDD0FB;" width="87.311" height="87.311"/>
					<rect x="1961.385" y="1003.221" style="fill:#BDD0FB;" width="87.311" height="87.311"/>
					<rect x="2065.552" y="1003.221" style="fill:#BDD0FB;" width="87.311" height="87.311"/>
				</g>
			</g>
			<g>
				<path style="fill:#91B3FA;" d="M1897.906,468.695h-37.141c-8.551,0-15.547,6.996-15.547,15.547v34.549h11.228v-22.457
					c0-8.551,6.996-15.547,15.547-15.547h37.141c1.396,0,2.745,0.204,4.036,0.554C1911.8,474.165,1905.465,468.695,1897.906,468.695
					z"/>
				<path style="fill:#91B3FA;" d="M1970.061,468.695h-37.141c-8.551,0-15.547,6.996-15.547,15.547v34.549h11.228v-22.457
					c0-8.551,6.996-15.547,15.547-15.547h37.141c1.396,0,2.745,0.204,4.036,0.554
					C1983.956,474.165,1977.62,468.695,1970.061,468.695z"/>
				<path style="fill:#91B3FA;" d="M2030.033,468.695h-37.141c-8.551,0-15.547,6.996-15.547,15.547v34.549h11.229v-22.457
					c0-8.551,6.996-15.547,15.547-15.547h37.141c1.396,0,2.745,0.204,4.036,0.554
					C2043.927,474.165,2037.592,468.695,2030.033,468.695z"/>
				<path style="fill:#91B3FA;" d="M2091.814,468.695h-37.141c-8.551,0-15.547,6.996-15.547,15.547v34.549h11.228v-22.457
					c0-8.551,6.996-15.547,15.547-15.547h37.142c1.396,0,2.745,0.204,4.035,0.554
					C2105.709,474.165,2099.374,468.695,2091.814,468.695z"/>
				<path style="fill:#91B3FA;" d="M2148.929,468.695h-37.141c-8.551,0-15.547,6.996-15.547,15.547v34.549h11.228v-22.457
					c0-8.551,6.996-15.547,15.548-15.547h37.141c1.396,0,2.745,0.204,4.035,0.554
					C2162.823,474.165,2156.488,468.695,2148.929,468.695z"/>
				<path style="fill:#91B3FA;" d="M2210.71,468.695h-37.141c-8.551,0-15.547,6.996-15.547,15.547v34.549h11.229v-22.457
					c0-8.551,6.996-15.547,15.547-15.547h37.141c1.396,0,2.745,0.204,4.035,0.554C2224.605,474.165,2218.27,468.695,2210.71,468.695
					z"/>
				<path style="fill:#91B3FA;" d="M2270.682,468.695h-37.141c-8.551,0-15.547,6.996-15.547,15.547v34.549h11.229v-22.457
					c0-8.551,6.996-15.547,15.547-15.547h37.141c1.396,0,2.745,0.204,4.035,0.554
					C2284.576,474.165,2278.241,468.695,2270.682,468.695z"/>
				<path style="fill:#91B3FA;" d="M2337.65,468.695h-37.141c-8.551,0-15.547,6.996-15.547,15.547v34.549h11.229v-22.457
					c0-8.551,6.996-15.547,15.547-15.547h37.141c1.396,0,2.745,0.204,4.035,0.554C2351.545,474.165,2345.21,468.695,2337.65,468.695
					z"/>
				<path style="fill:#91B3FA;" d="M2395.397,468.142h-37.141c-8.551,0-15.547,6.996-15.547,15.547v34.55h11.228v-22.457
					c0-8.551,6.996-15.547,15.548-15.547h37.141c1.396,0,2.745,0.204,4.035,0.554
					C2409.291,473.612,2402.956,468.142,2395.397,468.142z"/>
				<path style="fill:#91B3FA;" d="M2455.368,468.142h-37.141c-8.551,0-15.547,6.996-15.547,15.547v34.55h11.229v-22.457
					c0-8.551,6.996-15.547,15.547-15.547h37.141c1.396,0,2.745,0.204,4.035,0.554
					C2469.263,473.612,2462.927,468.142,2455.368,468.142z"/>
				<path style="fill:#91B3FA;" d="M2574.14,469.546h-37.141c-8.551,0-15.547,6.996-15.547,15.547v34.55h11.228v-22.457
					c0-8.551,6.996-15.547,15.547-15.547h37.142c1.396,0,2.745,0.204,4.035,0.554
					C2588.034,475.016,2581.699,469.546,2574.14,469.546z"/>
				<path style="fill:#91B3FA;" d="M2522.337,468.142h-37.141c-8.551,0-15.547,6.996-15.547,15.547v34.55h11.229v-22.457
					c0-8.551,6.996-15.547,15.547-15.547h37.141c1.396,0,2.745,0.204,4.035,0.554
					C2536.231,473.612,2529.896,468.142,2522.337,468.142z"/>
			</g>
		</g>
		<g>
			
				<ellipse transform="matrix(0.7976 -0.6032 0.6032 0.7976 -924.1471 885.7386)" style="fill:#7D97F4;" cx="857.64" cy="1819.81" rx="41.473" ry="12.469"/>
			<path style="fill:#7D97F4;" d="M1965.573,827.607c-3.396,6.666-20.952,4.528-39.212-4.774
				c-18.26-9.302-30.31-22.247-26.915-28.913c3.396-6.666,20.952-4.528,39.212,4.774
				C1956.918,807.997,1968.968,820.942,1965.573,827.607z"/>
			
				<linearGradient id="SVGID_00000178910479865897176590000004732373937321860244_" gradientUnits="userSpaceOnUse" x1="4083.5269" y1="4602.3267" x2="4171.0767" y2="3915.3923" gradientTransform="matrix(1 0 0 1 -2882.6848 0)">
				<stop  offset="0" style="stop-color:#09005D"/>
				<stop  offset="1" style="stop-color:#1A0F91"/>
			</linearGradient>
			<path style="fill:url(#SVGID_00000178910479865897176590000004732373937321860244_);" d="M1234.687,3097.831
				c0,0-9.204,52.101-13.716,103.676c-1.763,20.156,13.776,37.656,33.993,38.5c68.682,2.86,215.596,8.422,268.314,6.07
				c7.925-0.353,13.107-8.467,10.174-15.837c-2.459-6.177-7.199-11.171-13.238-13.946l-242.676-111.534L1234.687,3097.831z"/>
			
				<linearGradient id="SVGID_00000015319097020202901600000012891662629704181906_" gradientUnits="userSpaceOnUse" x1="4109.8325" y1="3097.615" x2="4188.7686" y2="3097.615" gradientTransform="matrix(1 0 0 1 -2882.6848 0)">
				<stop  offset="0" style="stop-color:#FEBBBA"/>
				<stop  offset="1" style="stop-color:#FF928E"/>
			</linearGradient>
			<path style="fill:url(#SVGID_00000015319097020202901600000012891662629704181906_);" d="M1227.148,3067.217l7.395,62.32
				c0,0,42.51,19.79,71.541-2.494l-17.604-69.451L1227.148,3067.217z"/>
			
				<linearGradient id="SVGID_00000048466364235231384040000000142272208382042291_" gradientUnits="userSpaceOnUse" x1="4468.2554" y1="1932.6732" x2="3712.0815" y2="2957.5691" gradientTransform="matrix(1 0 0 1 -2882.6848 0)">
				<stop  offset="0" style="stop-color:#09005D"/>
				<stop  offset="1" style="stop-color:#1A0F91"/>
			</linearGradient>
			<path style="fill:url(#SVGID_00000048466364235231384040000000142272208382042291_);" d="M1232.705,1895.579
				c-3.194,16.274-17.144,812.138,67.928,1168.791c1.388,5.82-1.562,11.818-7.101,14.081c-13.048,5.331-38.628,13.051-69.284,14.081
				c-9.494,0.319-18.005-5.851-20.684-14.964c-24.317-82.749-140.842-497.346-156.044-893.397c-16.985-442.549,0-15.068,0-15.068
				l9.963-273.557L1232.705,1895.579z"/>
			
				<linearGradient id="SVGID_00000030445034023007884530000002355251936055356833_" gradientUnits="userSpaceOnUse" x1="3703.2827" y1="4553.8682" x2="3790.8325" y2="3866.9341" gradientTransform="matrix(1 0 0 1 -2882.6848 0)">
				<stop  offset="0" style="stop-color:#09005D"/>
				<stop  offset="1" style="stop-color:#1A0F91"/>
			</linearGradient>
			<path style="fill:url(#SVGID_00000030445034023007884530000002355251936055356833_);" d="M955.53,3125.011
				c0,0-14.65,26.302-28.833,96.195c-2.561,12.624,6.259,24.704,19.077,25.963c22.679,2.23,57.592,5.099,85.558,4.906
				c12.892-0.089,22.954-11.314,21.4-24.113c-3.097-25.511-12.748-67.367-42.561-99.99L955.53,3125.011z"/>
			
				<linearGradient id="SVGID_00000138571969404390217160000004817972456558651778_" gradientUnits="userSpaceOnUse" x1="3825.3472" y1="3093.5676" x2="3893.5012" y2="3093.5676" gradientTransform="matrix(1 0 0 1 -2882.6848 0)">
				<stop  offset="0" style="stop-color:#FEBBBA"/>
				<stop  offset="1" style="stop-color:#FF928E"/>
			</linearGradient>
			<path style="fill:url(#SVGID_00000138571969404390217160000004817972456558651778_);" d="M942.662,3044.853l17.278,94.244
				c0,0,17.083,12.708,50.876,3.496l-8.246-101.401L942.662,3044.853z"/>
			
				<linearGradient id="SVGID_00000181777676157395842760000016311965431775742603_" gradientUnits="userSpaceOnUse" x1="4333.4868" y1="1833.24" x2="3577.3137" y2="2858.1357" gradientTransform="matrix(1 0 0 1 -2882.6848 0)">
				<stop  offset="0" style="stop-color:#09005D"/>
				<stop  offset="1" style="stop-color:#1A0F91"/>
			</linearGradient>
			<path style="fill:url(#SVGID_00000181777676157395842760000016311965431775742603_);" d="M895.989,1920.001
				c-69.578,419.905,15.092,1037.828,43.648,1158.77c1.748,7.405,7.724,13.078,15.229,14.322
				c12.746,2.113,33.732,3.836,54.421-2.172c7.128-2.07,12.136-8.499,12.427-15.918c3.831-97.778-3.064-698.043,61.766-935.271
				c3.285-12.022,10.627-22.507,20.785-29.729l125.831-89.455l9.647-144.596L895.989,1920.001z"/>
			<path style="fill:#91B3FA;" d="M1348.766,1119.86c-235.713-23.571-448.007,59.252-448.007,59.252
				c-62.153,362.658-10.868,780.959-10.868,780.959c161.423,42.332,343.518-25.882,343.518-25.882
				c26.83-151.583,152.009-578.186,152.009-578.186c101.877-12.643,185.802-42.037,254.915-80.897
				c-52.718-61.108-77.571-138.864-88.365-184.828C1478.248,1113.189,1412.768,1126.26,1348.766,1119.86z"/>
			<g>
				
					<linearGradient id="SVGID_00000160908750012715134470000000323396749091030676_" gradientUnits="userSpaceOnUse" x1="80.5055" y1="610.0815" x2="219.7773" y2="1008.0019" gradientTransform="matrix(-1 0 0 1 2092.5974 0)">
					<stop  offset="0" style="stop-color:#FEBBBA"/>
					<stop  offset="1" style="stop-color:#FF928E"/>
				</linearGradient>
				<path style="fill:url(#SVGID_00000160908750012715134470000000323396749091030676_);" d="M1950.267,823.53
					c2.144,6.814-22.676,17.188-37.289-10.678c-0.512-13.355-8.633-70.572-0.652-81.452
					c42.503-57.947,124.908-130.586,124.908-130.586c13.927,13.742,2.453,27.242,2.453,27.242l-39.976,41.644
					c8.362,15.11,18.561,27.865,23.341,46.141c3.621,13.841,1.406,28.632-5.585,41.229c-7.017,12.641-16.591,29.075-25.642,41.936
					C1974.695,823.347,1950.267,823.53,1950.267,823.53z"/>
				
					<linearGradient id="SVGID_00000026854079012074938620000002011756960407851140_" gradientUnits="userSpaceOnUse" x1="187.4967" y1="864.3122" x2="82.5895" y2="652.6887" gradientTransform="matrix(-1 0 0 1 2092.5974 0)">
					<stop  offset="0" style="stop-color:#FEBBBA"/>
					<stop  offset="1" style="stop-color:#FF928E"/>
				</linearGradient>
				<path style="fill:url(#SVGID_00000026854079012074938620000002011756960407851140_);" d="M1982.227,696.72l-36.43,30.882
					l-11.437,30.747l32.481,36.033c0,0,10.92-61.008,19.037-74.211C1993.995,706.966,1989.786,700.582,1982.227,696.72z"/>
			</g>
			
				<linearGradient id="SVGID_00000060001074609730610660000014133583587294027941_" gradientUnits="userSpaceOnUse" x1="757.4265" y1="1248.577" x2="770.7468" y2="1967.8824">
				<stop  offset="0" style="stop-color:#FEBBBA"/>
				<stop  offset="1" style="stop-color:#FF928E"/>
			</linearGradient>
			<path style="fill:url(#SVGID_00000060001074609730610660000014133583587294027941_);" d="M898.813,1825.014
				c0,0-221.828-236.535-120.808-331.382c19.491-18.3,128.969-95.714,149.846-98.775c10.405-72.686-67.129-125.896-76.326-161.631
				c-51.014,7.02-183.248,101.093-214.948,154.336C463.16,1678.835,872.29,1862.355,872.29,1862.355L898.813,1825.014z"/>
			
				<linearGradient id="SVGID_00000060000638556825704700000010799624638864647354_" gradientUnits="userSpaceOnUse" x1="3947.4734" y1="1011.7675" x2="4145.8589" y2="1011.7675" gradientTransform="matrix(1 0 0 1 -2882.6848 0)">
				<stop  offset="0" style="stop-color:#FEBBBA"/>
				<stop  offset="1" style="stop-color:#FF928E"/>
			</linearGradient>
			<path style="fill:url(#SVGID_00000060000638556825704700000010799624638864647354_);" d="M1170.298,853.841l-105.51,287.345
				c0,0,69.4,62.094,162.241,2.998c8.053-5.126,13.435-13.574,14.66-23.04l21.484-166.059L1170.298,853.841z"/>
			
				<linearGradient id="SVGID_00000102545694846672999110000009260777646493896377_" gradientUnits="userSpaceOnUse" x1="796.8932" y1="1247.9985" x2="810.3623" y2="1975.34">
				<stop  offset="0" style="stop-color:#FEBBBA"/>
				<stop  offset="1" style="stop-color:#FF928E"/>
			</linearGradient>
			<path style="fill:url(#SVGID_00000102545694846672999110000009260777646493896377_);" d="M898.813,1825.015l-56.268,18.82
				c0.356,26.471-6.487,48.942-22.642,76.591c-2.109,3.61-6.687,4.957-10.392,3.019l-63.603-33.281
				c-9.522-4.982-21.067-4.005-29.616,2.508l-6.506,4.957c-1.514,1.154-1.473,3.445,0.081,4.544l102.073,72.175
				c0,0,10.464,5.334,17.883,7.379c3.022,0.833,6.241,0.02,8.514-2.139C855.383,1963.4,935.92,1882.145,898.813,1825.015z"/>
			<path style="fill:#91B3FA;" d="M995.197,1153.533c-479.844,85.867-586.39,422.829-170.05,700.403
				c16.718-22.498,38.096-35.339,65.663-35.357c-160.147-234.3-148.644-377.453,79.132-405.762L995.197,1153.533z"/>
			<path style="fill:#91B3FA;" d="M1348.766,1119.86l36.653,236.143c310.639-22.96,486.84-220.872,579.568-527.417
				c-30.924-1.493-51.033-14.632-65.663-33.673C1745.081,988.794,1562.169,1098.883,1348.766,1119.86z"/>
			<polygon style="fill:#BDD0FB;" points="1080.503,1969.548 1141.115,1172.614 1192.747,1163.635 1127.645,1962.813 			"/>
			<path style="fill:#BDD0FB;" d="M1081.625,1087.309l-40.407,51.632c82.526,52.641,155.529,56.087,244.692-20.204l-41.53-33.674
				C1146.727,1116.492,1133.258,1111.441,1081.625,1087.309z"/>
			
				<linearGradient id="SVGID_00000111187024821841474390000010607479890846335647_" gradientUnits="userSpaceOnUse" x1="1226.3158" y1="1135.0079" x2="822.6509" y2="2829.5073">
				<stop  offset="0" style="stop-color:#09005D"/>
				<stop  offset="1" style="stop-color:#1A0F91"/>
			</linearGradient>
			<polygon style="fill:url(#SVGID_00000111187024821841474390000010607479890846335647_);" points="1144.482,1162.512 
				1097.339,1553.122 1147.849,1655.264 1201.726,1554.245 1184.89,1154.655 			"/>
			
				<linearGradient id="SVGID_00000011749275622240868260000013667453777997445775_" gradientUnits="userSpaceOnUse" x1="1750.3789" y1="875.5498" x2="1379.9735" y2="1037.1813">
				<stop  offset="0" style="stop-color:#09005D"/>
				<stop  offset="1" style="stop-color:#1A0F91"/>
			</linearGradient>
			<path style="fill:url(#SVGID_00000011749275622240868260000013667453777997445775_);" d="M1126.523,1101.9
				c1.495,29.569,3.2,58.683,13.469,69.592l52.754-6.735c10.432-19.946,15.427-45.673,16.837-75.204
				C1185.413,1087.388,1156.748,1093.25,1126.523,1101.9z"/>
			<path style="fill:#7D97F4;" d="M784.179,1816.337c-0.169,0-0.342-0.026-0.511-0.079c-0.886-0.283-1.375-1.23-1.092-2.118
				c11.187-35.041,35.906-53.417,75.568-56.169c0.903-0.105,1.733,0.638,1.797,1.565s-0.636,1.73-1.564,1.795
				c-38.127,2.647-61.873,20.257-72.595,53.834C785.555,1815.88,784.893,1816.337,784.179,1816.337z"/>
			<path style="fill:#7D97F4;" d="M1941.568,887.663c0.077,0.151,0.132,0.317,0.161,0.492c0.15,0.918-0.474,1.783-1.393,1.933
				c-36.307,5.906-63.888-7.803-84.314-41.912c-0.503-0.757-0.217-1.834,0.581-2.311s1.83-0.216,2.309,0.58
				c19.637,32.789,46.094,45.977,80.886,40.319C1940.537,886.643,1941.244,887.027,1941.568,887.663z"/>
			<path style="fill:#7D97F4;" d="M1906.9,826.482c0,3.952-3.203,7.156-7.155,7.156s-7.156-3.204-7.156-7.156
				c0-3.952,3.204-7.156,7.156-7.156S1906.9,822.53,1906.9,826.482z"/>
			<path style="fill:#7D97F4;" d="M826.831,1816.896c0,3.952-3.204,7.156-7.156,7.156s-7.156-3.204-7.156-7.156
				s3.204-7.156,7.156-7.156S826.831,1812.944,826.831,1816.896z"/>
			<g>
				
					<linearGradient id="SVGID_00000093141111025673581950000001619880512988364417_" gradientUnits="userSpaceOnUse" x1="621.9116" y1="1320.7338" x2="1244.8663" y2="899.819">
					<stop  offset="0" style="stop-color:#FEBBBA"/>
					<stop  offset="1" style="stop-color:#FF928E"/>
				</linearGradient>
				<path style="fill:url(#SVGID_00000093141111025673581950000001619880512988364417_);" d="M1293.121,780.609
					c1.571,2.592,41.454,198.97,41.454,198.97l-112.613,20.39l-65.454-180.51C1156.509,819.458,1266.818,737.219,1293.121,780.609z"
					/>
				
					<linearGradient id="SVGID_00000151520927077754248980000006948258568237762746_" gradientUnits="userSpaceOnUse" x1="908.5929" y1="315.4324" x2="1183.2064" y2="315.4324" gradientTransform="matrix(0.8551 -0.5184 0.5184 0.8551 202.5018 1159.8903)">
					<stop  offset="0" style="stop-color:#09005D"/>
					<stop  offset="1" style="stop-color:#1A0F91"/>
				</linearGradient>
				<path style="fill:url(#SVGID_00000151520927077754248980000006948258568237762746_);" d="M1196.623,850.067l26.624,96.309
					c0.404,1.461,0.984,2.843,1.778,4.135c4.373,7.124,20.119,28.683,41.744,11.277c18.432-14.836,35.576-28.216,50.867-31.453
					c8.929-1.891,17.635,4.013,19.418,12.964c3.673,18.439,10.334,55.795,11.59,89.815c0.315,8.526-6.064,15.818-14.541,16.791
					c-22.37,2.568-66.202,6.275-102.821,1.358c-6.015-0.808-11.073-4.843-13.21-10.524c-9.406-24.997-36.057-94.953-46.619-113.543
					c-9.813-17.271-36.253-19.121-48.43-19.009c-4.622,0.042-9.016-1.815-12.194-5.171c-9.53-10.066-24.736-32.768,1.592-56.757
					c6.546-5.964,6.899-16.23,1.072-22.897c-10.443-11.948-19.929-31.567,0.365-53.446c20.544-22.149,45.063-17.847,60.772-11.348
					c6.951,2.876,15.302,1.129,19.922-4.808c2.055-2.64,5.187-4.508,9.96-4.171c9.002,0.636,16.759-5.607,17.454-14.604
					c1.192-15.428,8.625-33.839,35.553-40.202c49.387-11.671,76.271,37.13,76.824,72.184c0.553,35.054-53.71,44.663-84.907,40.124
					c-22.916-3.334-41.756,17.458-50.144,28.732C1196.248,839.915,1195.265,845.152,1196.623,850.067z"/>
				
					<linearGradient id="SVGID_00000102522434350031015600000010922004899982729357_" gradientUnits="userSpaceOnUse" x1="747.4587" y1="483.2424" x2="931.8541" y2="294.0577" gradientTransform="matrix(0.8551 -0.5184 0.5184 0.8551 202.5018 1159.8903)">
					<stop  offset="0" style="stop-color:#FEBBBA"/>
					<stop  offset="1" style="stop-color:#FF928E"/>
				</linearGradient>
				<path style="fill:url(#SVGID_00000102522434350031015600000010922004899982729357_);" d="M1181.645,962.68
					c0,0-3.586-61.038-28.544-65.758c-24.958-4.72-50.895,14.252-28.246,49.952C1153.028,991.281,1181.645,962.68,1181.645,962.68z"
					/>
			</g>
		</g>
	</g>
</g>
</svg>
