<svg width="84" height="85" viewBox="0 0 84 85" fill="none" xmlns="http://www.w3.org/2000/svg">
<path d="M37.8334 63.3332H46.1667V38.3333H37.8334V63.3332ZM42 29.9999C43.1806 29.9999 44.1709 29.5999 44.9709 28.7999C45.7709 27.9999 46.1695 27.011 46.1667 25.8333C46.1639 24.6555 45.7639 23.6666 44.9667 22.8666C44.1695 22.0666 43.1806 21.6666 42 21.6666C40.8195 21.6666 39.8306 22.0666 39.0334 22.8666C38.2362 23.6666 37.8362 24.6555 37.8334 25.8333C37.8306 27.011 38.2306 28.0013 39.0334 28.8041C39.8362 29.6069 40.825 30.0055 42 29.9999ZM42 84.1666C36.2362 84.1666 30.8195 83.0721 25.75 80.8832C20.6806 78.6944 16.2709 75.7263 12.5209 71.9791C8.77088 68.2319 5.80282 63.8221 3.61671 58.7499C1.4306 53.6777 0.336157 48.261 0.333379 42.4999C0.330602 36.7388 1.42505 31.3221 3.61671 26.2499C5.80838 21.1777 8.77643 16.768 12.5209 13.0208C16.2653 9.27353 20.675 6.30547 25.75 4.11659C30.825 1.9277 36.2417 0.833252 42 0.833252C47.7584 0.833252 53.175 1.9277 58.25 4.11659C63.325 6.30547 67.7348 9.27353 71.4792 13.0208C75.2237 16.768 78.1931 21.1777 80.3875 26.2499C82.582 31.3221 83.675 36.7388 83.6667 42.4999C83.6584 48.261 82.5639 53.6777 80.3834 58.7499C78.2028 63.8221 75.2348 68.2319 71.4792 71.9791C67.7237 75.7263 63.3139 78.6957 58.25 80.8874C53.1862 83.0791 47.7695 84.1721 42 84.1666Z" fill="#BC00DD"/>
</svg>
